<?xml version="1.0" encoding="UTF-8" standalone="no"?>
<!-- Created with Inkscape (http://www.inkscape.org/) -->

<svg
   width="598.78009mm"
   height="598.82208mm"
   viewBox="0 0 598.78008 598.82208"
   version="1.1"
   id="svg1021"
   xml:space="preserve"
   inkscape:version="1.2.2 (732a01da63, 2022-12-09)"
   sodipodi:docname="Asset - Spoon.svg"
   xmlns:inkscape="http://www.inkscape.org/namespaces/inkscape"
   xmlns:sodipodi="http://sodipodi.sourceforge.net/DTD/sodipodi-0.dtd"
   xmlns="http://www.w3.org/2000/svg"
   xmlns:svg="http://www.w3.org/2000/svg"><sodipodi:namedview
     id="namedview1023"
     pagecolor="#505050"
     bordercolor="#eeeeee"
     borderopacity="1"
     inkscape:showpageshadow="0"
     inkscape:pageopacity="0"
     inkscape:pagecheckerboard="0"
     inkscape:deskcolor="#505050"
     inkscape:document-units="mm"
     showgrid="false"
     inkscape:zoom="0.457453"
     inkscape:cx="949.82435"
     inkscape:cy="1256.9597"
     inkscape:window-width="2560"
     inkscape:window-height="1377"
     inkscape:window-x="1072"
     inkscape:window-y="333"
     inkscape:window-maximized="1"
     inkscape:current-layer="layer1" /><defs
     id="defs1018" /><g
     inkscape:label="Layer 1"
     inkscape:groupmode="layer"
     id="layer1"
     transform="translate(193.7772,316.39147)"><path
       style="fill:#000000;stroke-width:0.254"
       d="m 372.77937,282.10606 c -4.18297,-0.65596 -8.13071,-2.21559 -11.79502,-4.65986 -0.96911,-0.64646 -3.32618,-2.71841 -5.23794,-4.60436 C 353.83466,270.95589 278.33257,193.06044 187.96402,99.740839 97.595493,6.421243 23.543013,-69.907764 23.402983,-69.879189 c -0.14003,0.0286 -1.62621,0.454229 -3.30261,0.945871 -16.3491901,4.794682 -38.88597,2.879598 -64.643,-5.493106 -35.5694,-11.562359 -73.313373,-34.225336 -99.538283,-59.766736 -18.83589,-18.34496 -33.32719,-40.20549 -41.75729,-62.992 -7.14544,-19.31412 -9.54563,-38.84504 -6.88278,-56.007 2.05718,-13.25847 7.20802,-25.12868 15.09989,-34.798 2.33775,-2.86427 10.23856,-10.72303 12.93646,-12.86761 13.58343,-10.79756 31.07397,-16.09021 51.181,-15.48742 17.873543,0.53584 35.931633,5.36256 54.229503,14.49492 30.60156,15.27305 56.6967499,40.05506 78.78477,74.82011 29.69125,46.732 43.04705,96.08022 33.94623,125.42759 l -0.81204,2.618563 3.41277,3.381197 c 1.87704,1.859636 77.822067,75.420093 168.766767,163.467669 90.9447,88.047571 167.04521,161.757231 169.11224,163.799241 4.40616,4.35282 6.61238,7.14712 8.17738,10.3571 4.04543,8.2976 3.83418,17.63682 -0.5838,25.8109 -5.54174,10.25324 -17.26753,16.07474 -28.75082,14.27396 z M -1.2872871,-91.873836 c 10.2884212,-3.597046 20.9045831,-10.118174 26.0948401,-19.702094 5.195001,-9.59268 4.027263,-21.88809 2.24292,-32.65023 -4.334403,-26.14265 -16.953815,-50.68626 -30.7526723,-73.30963 -7.7350097,-12.68163 -16.7013617,-25.30625 -28.6469047,-34.13564 -15.120209,-11.17591 -33.183508,-20.74441 -51.944523,-21.98774 -18.520953,-1.22742 -40.706073,1.49056 -53.695853,14.74943 -14.45284,14.75223 -17.50793,39.54671 -15.18242,60.06755 2.45804,21.69038 14.78911,42.48692 29.84842,58.28983 19.51181,20.47525 47.222099,31.99306 73.573853,42.265913 9.704271,3.783072 20.114398,5.860477 30.48,6.879692 5.967358,0.58675 12.3221689,1.511833 17.9823399,-0.467081 z"
       id="path1267"
       sodipodi:nodetypes="ssssscsssssssssscssssssaaaaaaaaaaaa" /></g></svg>
