<?xml version="1.0" encoding="UTF-8" standalone="no"?>
<!-- Created with Inkscape (http://www.inkscape.org/) -->

<svg
   width="134.22853mm"
   height="162.63747mm"
   viewBox="0 0 134.22853 162.63747"
   version="1.1"
   id="svg1021"
   xml:space="preserve"
   inkscape:version="1.2.2 (732a01da63, 2022-12-09)"
   sodipodi:docname="Asset - Laddle.svg"
   xmlns:inkscape="http://www.inkscape.org/namespaces/inkscape"
   xmlns:sodipodi="http://sodipodi.sourceforge.net/DTD/sodipodi-0.dtd"
   xmlns="http://www.w3.org/2000/svg"
   xmlns:svg="http://www.w3.org/2000/svg"><sodipodi:namedview
     id="namedview1023"
     pagecolor="#505050"
     bordercolor="#eeeeee"
     borderopacity="1"
     inkscape:showpageshadow="0"
     inkscape:pageopacity="0"
     inkscape:pagecheckerboard="0"
     inkscape:deskcolor="#505050"
     inkscape:document-units="mm"
     showgrid="false"
     inkscape:zoom="0.457453"
     inkscape:cx="462.34258"
     inkscape:cy="441.57542"
     inkscape:window-width="2560"
     inkscape:window-height="1377"
     inkscape:window-x="1072"
     inkscape:window-y="333"
     inkscape:window-maximized="1"
     inkscape:current-layer="layer1" /><defs
     id="defs1018" /><g
     inkscape:label="Layer 1"
     inkscape:groupmode="layer"
     id="layer1"
     transform="translate(-94.429824,88.555761)"><path
       style="fill:#000000;stroke-width:0.254"
       d="M 121.21836,73.951511 C 113.82865,72.9937 106.91722,69.656938 101.89821,64.623953 98.416721,61.132779 96.348069,57.6527 95.04035,53.087037 c -0.61074,-2.132292 -0.668467,-2.684597 -0.574766,-5.49913 0.103575,-3.111152 0.109449,-3.136735 1.043175,-4.543029 1.303598,-1.963359 2.859556,-3.104246 7.082111,-5.192865 4.05412,-2.00531 8.29698,-3.348822 14.65374,-4.640143 5.0713,-1.030196 8.01625,-1.448699 11.46675,-1.629537 6.32883,-0.331686 10.35547,-1.109663 13.23704,-2.557493 4.12432,-2.072241 8.22153,-6.281725 12.8396,-13.191447 3.34546,-5.005583 5.75739,-9.3210075 15.33204,-27.432 21.04948,-39.816283 32.35651,-59.508076 40.31348,-70.208032 3.01573,-4.055338 4.11557,-5.163724 5.97532,-6.021749 1.32965,-0.613454 1.90929,-0.730058 3.61552,-0.727327 1.80291,0.0029 2.24677,0.105728 3.937,0.912208 2.14799,1.024899 3.30122,2.0792 4.11654,3.763428 0.88854,1.835477 0.7734,3.305637 -0.45898,5.860472 -1.22316,2.535745 -2.40671,4.289463 -8.45672,12.530684 -12.4063,16.899656 -21.08856,30.330617 -32.47691,50.239952 -11.73348,20.5126849 -19.31698,35.081731 -24.24398,46.576364 -0.83832,1.9558 -3.10211,7.510988 -5.03064,12.34486 -5.02184,12.587275 -7.0725,16.707111 -10.40067,20.895256 -3.95466,4.976526 -9.86773,8.142674 -17.15564,9.185966 -2.33367,0.334074 -6.79682,0.436421 -8.636,0.198036 z m 13.77165,-11.876648 c 2.43601,-0.409956 6.20535,-1.649527 6.90589,-2.271045 0.22245,-0.19736 0.80973,-0.526077 1.30506,-0.730484 1.22935,-0.507314 3.81277,-2.948335 4.97762,-4.703267 2.04483,-3.080667 2.94515,-7.233196 2.26996,-10.469674 -0.48332,-2.316731 -1.60207,-4.669376 -2.81367,-5.916915 -1.15204,-1.186218 -3.78835,-2.007189 -8.38251,-2.610386 -10.21241,-1.34085 -26.99558,1.39303 -35.48301,5.779976 -4.822468,2.492614 -5.701956,3.517199 -5.971651,6.956847 -0.109797,1.400337 -0.04323,2.002269 0.301863,2.729494 1.010391,2.129241 5.949898,5.807359 10.562888,7.865463 1.47625,0.658637 2.77343,1.197521 2.88261,1.197521 0.10919,0 0.5587,0.159918 0.99891,0.355374 1.41358,0.627629 6.90796,1.823766 10.02262,2.181941 2.70926,0.311557 9.60803,0.108956 12.42342,-0.364845 z"
       id="path1286" /></g></svg>
