<?xml version="1.0" encoding="UTF-8" standalone="no"?>
<!-- Created with Inkscape (http://www.inkscape.org/) -->

<svg
   width="353.84927mm"
   height="286.19043mm"
   viewBox="0 0 353.84927 286.19043"
   version="1.1"
   id="svg1021"
   xml:space="preserve"
   inkscape:version="1.2.2 (732a01da63, 2022-12-09)"
   sodipodi:docname="Asset - Pot.svg"
   xmlns:inkscape="http://www.inkscape.org/namespaces/inkscape"
   xmlns:sodipodi="http://sodipodi.sourceforge.net/DTD/sodipodi-0.dtd"
   xmlns="http://www.w3.org/2000/svg"
   xmlns:svg="http://www.w3.org/2000/svg"><sodipodi:namedview
     id="namedview1023"
     pagecolor="#505050"
     bordercolor="#eeeeee"
     borderopacity="1"
     inkscape:showpageshadow="0"
     inkscape:pageopacity="0"
     inkscape:pagecheckerboard="0"
     inkscape:deskcolor="#505050"
     inkscape:document-units="mm"
     showgrid="false"
     inkscape:zoom="0.64693624"
     inkscape:cx="690.17621"
     inkscape:cy="723.40978"
     inkscape:window-width="2560"
     inkscape:window-height="1377"
     inkscape:window-x="1072"
     inkscape:window-y="333"
     inkscape:window-maximized="1"
     inkscape:current-layer="layer1" /><defs
     id="defs1018" /><g
     inkscape:label="Layer 1"
     inkscape:groupmode="layer"
     id="layer1"
     transform="translate(36.711003,122.36932)"><path
       style="fill:#000000;stroke-width:0.254"
       d="m 53.980501,163.68093 c -2.703874,-0.34953 -9.414269,-1.92416 -12.086959,-2.83627 -2.133709,-0.72814 -5.492798,-2.09065 -6.406223,-2.59847 -0.252549,-0.14041 -1.127701,-0.595 -1.944783,-1.01021 -8.060987,-4.09631 -16.035838,-11.1138 -21.620927,-19.02539 -3.3496385,-4.74497 -6.4273205,-10.71351 -8.0596465,-15.63004 -1.47827,-4.45251 -2.623076,-9.76861 -3.082575,-14.31442 -0.162303,-1.60566 -0.265887,-10.98141 -0.265887,-24.066499 V 62.763555 H -13.951997 c -9.82933,0 -14.896889,-0.09238 -15.8115,-0.288244 -2.501293,-0.535651 -5.135392,-2.807422 -6.356805,-5.482407 -0.798804,-1.749443 -0.785469,-5.204918 0.02801,-7.258739 0.715365,-1.80611 2.672202,-3.888961 4.613476,-4.910574 l 1.385313,-0.729036 15.29638,-0.07109 15.2963825,-0.07108 0.07062,-3.484916 0.07062,-3.484913 H 140.2135 279.7865 l 0.0707,3.4925 0.0707,3.4925 14.78833,0.0015 c 8.79691,7.62e-4 15.14851,0.101496 15.67734,0.248437 1.25534,0.348816 3.44637,1.816268 4.42841,2.965951 3.71717,4.351721 2.86583,10.682666 -1.87505,13.943825 -2.37068,1.630736 -2.36248,1.630012 -18.49186,1.633355 l -14.5415,0.0029 v 20.7645 c 0,16.753276 -0.0748,21.475976 -0.38522,24.447496 -1.0292,9.85289 -3.80456,18.35688 -8.53818,26.162 -3.11188,5.13105 -4.95331,7.52279 -8.96864,11.649 -3.13319,3.2197 -5.64462,5.32338 -9.41245,7.88434 -2.33076,1.58419 -7.98294,4.85066 -8.39343,4.85066 -0.0958,0 -1.02842,0.40005 -2.07252,0.889 -1.04409,0.48895 -1.98528,0.889 -2.09156,0.889 -0.10627,0 -1.38194,0.39213 -2.83484,0.87137 -2.74155,0.90432 -7.43821,1.98631 -10.51565,2.42253 -1.68202,0.23843 -170.889394,0.32413 -172.720002,0.0875 z M 281.5645,23.015524 c -0.1397,-0.04616 -2.0828,-0.505176 -4.318,-1.020036 -3.82128,-0.880201 -8.08909,-1.886153 -19.558,-4.609978 -4.89882,-1.163455 -5.77345,-1.370269 -15.24,-3.603701 -2.9337,-0.692143 -7.8486,-1.852694 -10.922,-2.578999 -3.0734,-0.726308 -6.731,-1.5854303 -8.128,-1.9091613 -1.397,-0.32373 -4.7117,-1.107397 -7.366,-1.74148 -6.1357,-1.46575 -14.37389,-3.418395 -19.431,-4.605614 -2.16535,-0.50834 -5.7658,-1.363144 -8.001,-1.899559 -2.2352,-0.53641797 -6.5786,-1.56625097 -9.652,-2.288517 -3.0734,-0.722267 -6.98351,-1.651008 -8.68913,-2.063867 -1.70563,-0.412862 -4.04878,-0.96706 -5.207,-1.23155 -1.15823,-0.264493 -3.36317,-0.779645 -4.89987,-1.144785 -1.5367,-0.365138 -5.25145,-1.245703 -8.255,-1.956809 -3.00355,-0.711106 -7.9756,-1.899285 -11.049,-2.6403977 -3.0734,-0.741114 -6.67385,-1.588552 -8.001,-1.883197 -1.32715,-0.294643 -4.52755,-1.038771 -7.112,-1.653619 -2.58445,-0.614845 -7.15645,-1.702257 -10.16,-2.416469 -3.00355,-0.714213 -6.604,-1.571483 -8.001,-1.905046 -1.397,-0.333566 -4.99745,-1.184925 -8.000999,-1.891914 -3.00355,-0.706989 -8.26135,-1.958274 -11.684,-2.780629 -3.42265,-0.822358 -7.1374,-1.696845 -8.255,-1.943304 -1.1176,-0.246456 -3.175,-0.722975 -4.572,-1.058928 -1.397,-0.335953 -3.74015,-0.893671 -5.207,-1.23937 -1.46685,-0.345702 -5.01015,-1.190036 -7.874,-1.876301 -2.86385,-0.686262 -6.52145,-1.549824 -8.128,-1.919026 -1.60655,-0.369199 -5.3213,-1.241303 -8.255,-1.938005 -13.007226,-3.088995 -14.895556,-3.533749 -17.653,-4.157774 -1.60655,-0.36357 -5.207,-1.216932 -8.001,-1.896356 -2.794,-0.679425 -7.5946,-1.824871 -10.6680005,-2.545438 -3.0734,-0.720568 -7.205027,-1.699375 -9.181394,-2.175129 -1.976366,-0.475755 -3.769845,-0.86501 -3.985509,-0.86501 -0.668114,0 -0.685312,-0.361429 -0.152687,-3.208576 0.284023,-1.518234 0.781004,-4.224818 1.104407,-6.014634 0.323403,-1.789816 0.703837,-3.370044 0.845409,-3.511616 0.173873,-0.173873 1.757967,0.120508 4.881413,0.907141 2.543205,0.640499 4.739967,1.092878 4.881692,1.005289 0.141724,-0.08759 0.597349,-0.91736 1.0125,-1.843931 0.792637,-1.769072 3.6654465,-7.063156 4.7734755,-8.796673 0.75613,-1.182969 3.566528,-5.022809 4.80077,-6.559278 1.395059,-1.736662 5.687052,-6.027942 7.692476,-7.691202 7.196666,-5.96876 14.386504,-9.75391 22.570448,-11.88239 5.579102,-1.45101 7.416876,-1.68048 13.462,-1.68086 4.137787,-2.6e-4 8.845443,0.62069 13.462,1.77568 1.18745,0.29708 4.5593,1.10501 7.493,1.79539 8.047177,1.89375 15.682044,3.70792 21.335999,5.06981 2.794,0.67299 6.39445,1.52543 8.001,1.89431 4.26771,0.97989 11.61652,2.72228 17.22714,4.08452 2.69948,0.65542 5.09333,1.20615 5.31965,1.22385 0.38998,0.0305 0.91349,-2.33102 1.96362,-8.85783 l 0.16348,-1.016 -2.87545,-0.67946 c -1.58149,-0.37371 -5.33289,-1.26018 -8.33644,-1.96994 -7.75105,-1.83163 -6.9964,-1.55091 -6.91856,-2.57364 0.0982,-1.28975 1.52562,-5.89428 2.59356,-8.365965 0.51305,-1.18745 1.78179,-3.52663 2.81942,-5.19818 2.32684,-3.7484 6.85622,-8.50772 9.88758,-10.38952 4.35234,-2.70184 7.95042,-4.12761 12.954,-5.13315 2.82684,-0.56808 9.0255,-0.37145 12.065,0.38272 4.11415,1.02083 8.82469,3.19448 12.319,5.68454 2.87584,2.04934 4.0887,3.15605 6.29958,5.74819 7.19882,8.44025 10.77542,19.757675 9.71761,30.749405 -0.16807,1.74625 -0.39809,3.270001 -0.51118,3.386112 -0.1131,0.116111 -1.10505,-0.01953 -2.20433,-0.301457 -1.85372,-0.475394 -9.84594,-2.389585 -13.48088,-3.228765 -2.59145,-0.59828 -2.484,-0.66588 -2.95426,1.85861 -0.64584,3.467085 -1.18284,6.751036 -1.18373,7.239 -5.1e-4,0.244475 0.17096,0.4445 0.38089,0.4445 0.20994,0 2.75311,0.573636 5.6515,1.274747 12.03595,2.911457 14.75558,3.557857 16.47399,3.915502 0.99342,0.206751 4.65102,1.074049 8.128,1.927324 3.47701,0.853275 6.60756,1.591282 6.95681,1.640012 0.34925,0.04873 2.74955,0.605551 5.334,1.237376 2.58445,0.631827 6.69925,1.621282 9.144,2.198787 8.5516,2.020087 13.43416,3.295502 15.40855,4.025 4.48735,1.65797 11.1598,5.285641 14.92758,8.115788 2.5304,1.900702 6.58688,5.51544 7.6484,6.815503 0.55245,0.676603 1.63388,1.926458 2.40315,2.777455 1.33197,1.473505 2.46601,3.034977 5.51931,7.599616 1.5192,2.271182 5.35669,9.850997 6.17347,12.19389 0.29223,0.8382 0.91928,2.620754 1.39342,3.961232 1.91438,5.4119947 3.21938,11.2773677 3.80469,17.1003537 0.20953,2.084271 0.43323,3.841864 0.49711,3.905763 0.0639,0.0639 0.54935,0.205702 1.07876,0.315118 3.2398,0.669584 6.21068,1.4540453 6.46326,1.7066333 0.22164,0.221638 0.19106,0.838609 -0.12527,2.527064 -0.23018,1.22861 -0.66271,3.719736 -0.96121,5.535836 -0.72431,4.40692 -0.83587,4.664062 -1.87422,4.320969 z"
       id="path1236" /></g></svg>
