<?xml version="1.0" encoding="UTF-8" standalone="no"?>
<!-- Created with Inkscape (http://www.inkscape.org/) -->

<svg
   width="103.42448mm"
   height="163.73434mm"
   viewBox="0 0 103.42449 163.73435"
   version="1.1"
   id="svg5001"
   inkscape:version="1.1 (c68e22c387, 2021-05-23)"
   sodipodi:docname="Asset - Wheat.svg"
   xmlns:inkscape="http://www.inkscape.org/namespaces/inkscape"
   xmlns:sodipodi="http://sodipodi.sourceforge.net/DTD/sodipodi-0.dtd"
   xmlns="http://www.w3.org/2000/svg"
   xmlns:svg="http://www.w3.org/2000/svg">
  <sodipodi:namedview
     id="namedview5003"
     pagecolor="#505050"
     bordercolor="#eeeeee"
     borderopacity="1"
     inkscape:pageshadow="0"
     inkscape:pageopacity="0"
     inkscape:pagecheckerboard="0"
     inkscape:document-units="mm"
     showgrid="false"
     fit-margin-top="0"
     fit-margin-left="0"
     fit-margin-right="0"
     fit-margin-bottom="0"
     inkscape:zoom="1.0998546"
     inkscape:cx="23.184883"
     inkscape:cy="388.68774"
     inkscape:window-width="2560"
     inkscape:window-height="1377"
     inkscape:window-x="1072"
     inkscape:window-y="333"
     inkscape:window-maximized="1"
     inkscape:current-layer="layer1" />
  <defs
     id="defs4998" />
  <g
     inkscape:label="Layer 1"
     inkscape:groupmode="layer"
     id="layer1"
     transform="translate(-88.445064,-89.138416)">
    <path
       style="fill:#000000;fill-opacity:1;stroke:none;stroke-width:0.914444"
       d="m 88.706975,251.85292 c -0.821307,-1.42253 -0.01345,-2.20461 6.847265,-6.62873 11.51727,-7.42689 20.4769,-19.96226 24.19293,-33.84823 1.47842,-5.52526 1.4721,-5.56351 -1.07109,-6.43893 -8.48918,-2.92215 -16.87533,-18.43877 -14.58503,-26.98625 0.49068,-1.83126 0.25936,-4.65094 -0.57912,-7.05913 -0.76788,-2.20547 -1.16936,-5.71356 -0.89217,-7.79576 0.28085,-2.10961 -0.16041,-5.22137 -0.99656,-7.02805 -1.818327,-3.92878 -2.669013,-9.48565 -1.66396,-10.86931 0.40424,-0.5565 -0.01773,-2.21739 -0.937688,-3.69088 -1.970861,-3.15667 -3.467532,-9.42536 -2.823867,-11.82755 0.24959,-0.93148 -0.06251,-2.41665 -0.693568,-3.30035 -2.134592,-2.98921 -4.309645,-9.82568 -3.768542,-11.8451 0.523575,-1.95401 0.711143,-1.94684 7.02832,0.26851 6.474155,2.27041 8.086405,2.04114 6.033135,-0.85764 -0.51752,-0.73069 -1.38812,-4.09878 -1.93466,-7.48466 -1.077,-6.672299 0.45678,-15.657607 2.91499,-17.076868 3.6674,-2.117363 13.20318,9.90875 14.83299,18.706808 0.36053,1.94611 0.90015,3.60397 1.19917,3.68409 0.8703,0.2332 6.52576,-6.63914 7.03859,-8.55304 0.30826,-1.15043 1.06383,-1.58305 2.22252,-1.27258 2.19848,0.58908 4.30085,7.02547 4.21207,12.89519 -0.0359,2.37046 0.45142,4.44832 1.08284,4.61751 1.67901,0.44989 3.27984,6.6293 3.12455,12.06124 -0.0815,2.85252 0.38433,5.01892 1.17626,5.46981 1.3997,0.79689 2.78726,6.67134 2.67352,11.31872 l -0.0691,2.8216 0.81227,-2.66979 c 0.44676,-1.46837 1.37427,-2.99428 2.06116,-3.39084 0.91856,-0.53032 1.12705,-1.89976 0.78823,-5.17732 -0.30522,-2.95254 0.0412,-5.65944 1.02646,-8.02194 1.07549,-2.57869 1.26308,-4.61653 0.67824,-7.36187 -0.86093,-4.04027 0.25818,-10.21257 1.77783,-9.80538 0.50113,0.13428 3.11155,1.70705 5.80091,3.49505 2.68937,1.78801 5.04567,3.16089 5.23619,3.05089 0.19052,-0.10997 0.16691,-2.80022 -0.0525,-5.97825 -0.46466,-6.7304 2.40615,-19.805424 4.63292,-21.100527 1.87533,-1.09065 7.21501,3.316038 9.22662,7.614577 2.03558,4.34968 3.52478,11.8138 3.2011,16.04454 l -0.2664,3.48263 2.61895,-1.40496 c 1.44041,-0.77274 3.91444,-2.9042 5.49785,-4.73655 1.58342,-1.83238 3.19231,-3.24765 3.57529,-3.14503 2.32227,0.62225 2.66702,8.31829 0.70788,15.80229 -0.82983,3.16651 -1.1852,5.84396 -0.79165,5.94942 1.48617,0.39821 1.01997,7.10513 -0.98258,14.13483 -1.14255,4.01099 -2.36845,9.4262 -2.72398,12.03377 -0.4353,3.19194 -1.49421,6.13287 -3.24043,9.0008 -1.85235,3.04206 -2.46562,4.80837 -2.14533,6.17888 0.50517,2.16137 -1.6104,7.29258 -5.00463,12.13744 -1.2325,1.75935 -2.94371,5.56663 -3.80264,8.4606 -3.74467,12.61631 -18.73022,22.46719 -29.57641,19.44217 l -4.03288,-1.12492 -6.91195,7.69001 c -9.53236,10.60538 -20.22587,19.81312 -30.48986,26.25355 -7.895663,4.95433 -10.989174,5.93572 -12.184489,3.86537 z m 38.172695,-31.98731 c 3.73099,-4.08166 6.9168,-7.91822 7.07958,-8.52571 0.48368,-1.80513 -2.38897,-4.18097 -5.28072,-4.36748 l -2.69449,-0.17375 -2.95323,8.82151 c -1.62427,4.85185 -3.48127,9.74511 -4.12664,10.8739 -2.05283,3.5905 0.80733,1.2134 7.9755,-6.62847 z m 25.95199,-11.25169 c 2.114,-0.70713 5.60596,-2.78935 7.75993,-4.62714 4.43833,-3.78687 4.6978,-3.66357 -5.67599,-2.69744 -5.40348,0.50324 -10.66695,3.44829 -11.46133,6.41294 -0.42019,1.56817 -0.0839,1.83506 2.52453,2.00327 1.65515,0.10657 4.73889,-0.38448 6.85286,-1.09163 z m -13.43872,-5.10231 c 1.5701,-2.45428 0.7838,-2.95997 -1.08214,-0.69595 -0.88028,1.06804 -1.23835,2.03893 -0.7957,2.15753 0.44265,0.11861 1.28767,-0.53909 1.87783,-1.46158 z m -17.45378,-5.78877 c -0.15329,-4.50652 -2.5992,-7.5648 -8.96153,-11.20529 -3.58295,-2.0501 -3.88877,-2.09958 -3.51631,-0.56893 0.52508,2.158 5.01172,9.45539 6.96519,11.32868 0.82848,0.79453 2.42421,1.70347 3.54605,2.01991 1.71165,0.48099 2.02792,0.22918 1.9666,-1.57437 z m 11.43636,0.99386 c 3.48305,-2.32435 8.00627,-9.42399 8.25491,-12.95689 0.17825,-2.53267 -11.56909,6.08476 -13.34666,9.79065 -2.53277,5.28031 -0.22584,6.71486 5.09175,3.16624 z m 27.12201,-5.89926 c 1.84932,-0.72546 4.36362,-2.07536 5.58733,-2.99972 2.73106,-2.06303 6.88825,-6.58476 6.21883,-6.76413 -0.26916,-0.0721 -3.07251,0.41206 -6.22951,1.07602 -6.3593,1.33744 -9.91499,3.22171 -12.28073,6.50798 -1.48,2.05588 -1.42867,2.22063 0.88527,2.84064 1.35101,0.36201 3.96948,0.0647 5.81881,-0.66079 z m -37.77009,-10.22265 c 0.42651,-1.59176 -1.01753,-5.46315 -2.66445,-7.1432 -1.70259,-1.73686 -10.74422,-6.66374 -11.47499,-6.25284 -0.83681,0.47053 1.99908,5.49816 4.84735,8.5937 2.8383,3.08472 8.91133,6.22335 9.29209,4.80234 z m 26.38977,3.9498 c 0.51213,-1.92674 0.40286,-4.63112 -0.26217,-6.46049 -0.67322,-1.85191 -1.09279,-2.35387 -1.01971,-1.21994 0.0683,1.05967 -0.15583,3.87525 -0.49807,6.25679 -0.73914,5.14343 0.52189,6.15203 1.77995,1.42364 z m -18.40279,-3.86438 c 2.52211,-0.26482 6.99581,-5.91538 8.99963,-11.36713 1.01438,-2.75985 1.48876,-5.10407 1.05416,-5.20942 -0.93229,-0.22744 -7.32448,4.83607 -9.72643,7.70303 -1.83446,2.1896 -3.46959,6.98844 -2.78514,8.17393 0.52593,0.91093 0.50404,0.90469 2.45777,0.69956 z m -9.1519,-16.93675 c 0.12018,-0.44853 -0.46607,-2.27836 -1.30279,-4.0663 -1.53791,-3.28626 -2.6411,-4.06024 -10.33808,-7.25306 l -4.26002,-1.7671 1.84132,3.42845 c 1.01272,1.88564 3.24954,4.66714 4.97069,6.1811 3.21673,2.8295 8.70027,4.92721 9.08888,3.47691 z m 47.55447,9.34819 c 3.66623,-1.87575 10.98525,-9.35586 10.30581,-10.53262 -0.12678,-0.21958 -3.014,0.46773 -6.41592,1.52761 -6.45659,2.01155 -9.24648,3.91105 -11.34625,7.725 -1.11316,2.02194 -1.00727,2.33355 0.97345,2.86428 1.30034,0.34842 3.9902,-0.30892 6.48291,-1.58427 z m -12.4715,-3.13823 c 1.28788,-2.64322 -0.62485,-8.26297 -4.30459,-12.6473 -2.04093,-2.43175 -3.96614,-4.03459 -4.27825,-3.56186 -1.01152,1.53202 1.4895,11.59028 3.65223,14.688 2.24958,3.22216 3.85975,3.71891 4.93057,1.5213 z m -24.91983,-8.43379 c 2.14435,-1.7706 3.20815,-3.75686 4.9883,-9.31379 l 2.26269,-7.06323 -2.41739,1.71902 c -5.00872,3.56172 -9.49491,9.53599 -9.75969,12.99702 -0.31006,4.053 1.35091,4.61304 4.9261,1.66098 z M 118.75959,147.5622 c -0.58807,-3.51592 -3.84429,-6.23989 -10.4175,-8.71459 l -5.9533,-2.24133 1.49702,2.86524 c 2.15439,4.12345 7.20617,8.24483 11.52598,9.40318 3.59288,0.96341 3.7201,0.91366 3.3478,-1.3125 z m 13.9483,-7.49463 c 1.02112,-2.51194 1.8687,-6.04015 1.88355,-7.84048 l 0.027,-3.27334 -5.00379,5.64026 c -5.39225,6.07815 -6.00756,7.35473 -5.57294,11.56202 l 0.28315,2.74091 3.26324,-2.13114 c 2.35079,-1.53522 3.78238,-3.40817 5.11978,-6.69823 z m 29.61583,14.87866 c 1.11502,-4.16132 -2.43434,-10.19179 -8.63039,-14.66328 l -2.17696,-1.57102 1.01045,4.80613 c 1.07653,5.1204 5.60154,13.01644 7.79642,13.60455 0.86663,0.23222 1.55609,-0.51789 2.00048,-2.17638 z m 12.21521,1.92867 c 2.5525,-1.5473 5.56153,-4.30511 6.68669,-6.12844 3.77099,-6.11088 3.34569,-6.57203 -3.18656,-3.45519 -6.5212,3.11163 -9.53865,5.8021 -10.49029,9.35367 -0.90748,3.38677 1.64404,3.47072 6.99016,0.22996 z m -59.64077,-24.32946 c 1.36344,-1.28406 -2.00445,-6.16604 -5.56178,-8.06224 -1.78031,-0.94893 -4.98526,-2.20399 -7.12213,-2.78898 l -3.885268,-1.06342 1.175753,2.34262 c 2.633555,5.24721 13.084895,11.7463 15.393365,9.57222 z m 10.18235,-3.59154 c 2.37271,-2.3491 5.84351,-12.56037 5.105,-15.01921 -0.45726,-1.5224 -4.3319,1.98971 -7.52522,6.82117 -2.05579,3.1104 -2.48663,4.44963 -2.32773,7.23564 0.22603,3.96282 1.46394,4.21375 4.74793,0.96247 z m 40.96275,8.57769 c 0.77933,-2.90848 -2.61167,-7.9505 -7.57231,-11.2592 -2.33825,-1.55955 -4.43772,-2.72799 -4.6655,-2.59648 -0.73331,0.42337 1.78536,6.22599 4.57156,10.53215 3.21339,4.96632 6.80844,6.52492 7.66625,3.32353 z m 10.92418,1.56663 c 3.09778,-1.79001 4.78869,-3.58132 6.45424,-6.83751 4.07348,-7.96379 3.86653,-8.73837 -1.4169,-5.30325 -2.55203,1.65927 -5.71724,4.00628 -7.03381,5.21556 -2.59629,2.38477 -4.79649,8.65516 -3.18822,9.0861 0.54298,0.14549 2.87606,-0.82691 5.18469,-2.1609 z m -60.73723,-22.42805 c 0.32302,-5.83616 -1.04624,-10.96594 -4.2866,-16.05916 -2.92157,-4.592152 -3.34739,-4.948256 -4.02381,-3.364874 -2.16282,5.062784 2.60811,20.972884 6.61072,22.045374 1.26278,0.33837 1.56135,-0.12211 1.69969,-2.62134 z m 57.04165,2.2671 c 0.71975,-5.8619 -1.96271,-16.61985 -4.30026,-17.24619 -2.83949,-0.76084 -3.30139,16.86554 -0.59356,22.65167 l 1.61413,3.44917 1.38664,-2.36509 c 0.76266,-1.30079 1.61454,-4.2211 1.89306,-6.48956 z"
       id="path6929" />
  </g>
</svg>
