<?xml version="1.0" encoding="UTF-8" standalone="no"?>
<!-- Created with Inkscape (http://www.inkscape.org/) -->

<svg
   width="99.523972mm"
   height="123.00649mm"
   viewBox="0 0 99.523972 123.00649"
   version="1.1"
   id="svg8913"
   xml:space="preserve"
   inkscape:version="1.2.2 (732a01da63, 2022-12-09)"
   sodipodi:docname="Asset - Fist.svg"
   xmlns:inkscape="http://www.inkscape.org/namespaces/inkscape"
   xmlns:sodipodi="http://sodipodi.sourceforge.net/DTD/sodipodi-0.dtd"
   xmlns="http://www.w3.org/2000/svg"
   xmlns:svg="http://www.w3.org/2000/svg"><sodipodi:namedview
     id="namedview8915"
     pagecolor="#505050"
     bordercolor="#eeeeee"
     borderopacity="1"
     inkscape:showpageshadow="0"
     inkscape:pageopacity="0"
     inkscape:pagecheckerboard="0"
     inkscape:deskcolor="#505050"
     inkscape:document-units="mm"
     showgrid="false"
     inkscape:zoom="0.914906"
     inkscape:cx="447.58696"
     inkscape:cy="171.60233"
     inkscape:window-width="2560"
     inkscape:window-height="1377"
     inkscape:window-x="1072"
     inkscape:window-y="333"
     inkscape:window-maximized="1"
     inkscape:current-layer="layer1" /><defs
     id="defs8910" /><g
     inkscape:label="Layer 1"
     inkscape:groupmode="layer"
     id="layer1"
     transform="translate(84.360019,-47.903017)"><path
       style="fill:#000000;stroke-width:0.254"
       d="m -45.117018,170.467 c -10.6172,-0.20127 -19.35335,-0.41437 -19.41367,-0.47356 -0.0603,-0.0592 0.41975,-7.43391 1.06683,-16.38828 l 1.17649,-16.28068 -11.036325,-16.84606 c -6.06998,-9.26533 -11.036326,-16.92187 -11.036326,-17.01453 0,-0.16099 15.365655,-29.767315 17.675784,-34.057449 l 1.110371,-2.062066 3.593906,0.991915 c 1.97665,0.545554 3.62488,0.959133 3.66273,0.919066 0.0379,-0.04007 2.37519,-4.816299 5.19408,-10.613849 2.81888,-5.79755 5.20903,-10.628102 5.31145,-10.73456 0.145,-0.150729 13.0136,4.076429 16.32659,5.363059 0.65569,0.254643 0.71339,0.201275 1.7598,-1.627612 0.59504,-1.039988 1.18492,-1.890887 1.31085,-1.890887 0.16957,0 20.0478201,11.969272 20.4513201,12.314338 0.0384,0.03287 -0.16159,0.599766 -0.4445,1.25977 -0.28291,0.660005 -0.5128,1.333407 -0.51087,1.49645 0.002,0.163043 3.27369,2.639592 7.27057,5.503442 3.99687,2.86385 7.31954,5.34291 7.38371,5.509026 0.0642,0.166114 -0.29911,1.011464 -0.8073,1.878556 -0.50819,0.867093 -0.83207,1.661676 -0.71974,1.765742 0.11234,0.104067 2.60455,2.214113 5.53825,4.688993 2.9336999,2.474882 5.3709199,4.658896 5.4160499,4.853368 0.0451,0.19447 -1.57228,4.039924 -3.59424,8.545449 l -3.6762999,8.191869 -4.87517,20.066 c -2.68133998,11.0363 -4.97507,20.18764 -5.09718,20.3363 -0.12211,0.14867 -0.79715,0.53968 -1.50009,0.86892 l -1.27807,0.59862 v 11.64058 11.64058 l -10.4775001,-0.0383 c -5.76263,-0.0211 -19.1643,-0.20296 -29.7815,-0.40423 z m 8.62601,-2.41499 c 0.0556,-0.17462 0.40527,-6.9469 0.77709,-15.0495 0.37182,-8.1026 0.69423,-14.74759 0.71647,-14.76665 0.0222,-0.019 1.92638,1.64614 4.23143,3.70042 l 4.191,3.73507 10.922,-0.4829 c 6.0071001,-0.2656 10.9947001,-0.55918 11.0835501,-0.65242 0.21552,-0.22614 7.14641,-32.06223 7.00985,-32.19879 -0.0586,-0.0586 -1.23901,1.59635 -2.62312998,3.67766 l -2.51657002,3.78422 -6.09448,-4.16281 c -3.3519601,-2.28954 -6.2039601,-4.1628 -6.3377601,-4.1628 -0.1338,0 -0.60587,0.35144 -1.04904,0.78098 l -0.80577,0.78097 -2.67871,-1.52075 c -1.4733,-0.83642 -2.74492,-1.45456 -2.82583,-1.37365 -0.0809,0.0809 -0.15851,0.78529 -0.17243,1.56528 -0.0504,2.82471 -0.32402,2.84518 -0.9784,0.0732 -0.3347,-1.41784 -0.67442,-2.66944 -0.75492,-2.78134 -0.21541,-0.29941 -1.48783,-1.08071 -1.76005,-1.08071 -0.14076,0 -0.1819,2.61567 -0.10287,6.5405 0.0724,3.59728 0.0717,6.48335 -0.002,6.4135 -0.0734,-0.0699 -0.55367,-1.7272 -1.06728,-3.683 -0.51361,-1.9558 -1.11488,-4.18465 -1.33615,-4.953 l -0.40232,-1.397 -2.37411,10.668 c -1.30576,5.8674 -2.43096,10.7823 -2.50045,10.922 -0.0695,0.1397 -0.0709,-0.6604 -0.003,-1.778 0.0678,-1.1176 0.14368,-6.75996 0.1687,-12.53857 l 0.0455,-10.50656 -7.6586,-6.44794 c -4.21223,-3.54636 -7.86003,-6.445994 -8.10623,-6.443626 -0.24619,0.0023 -2.67648,0.447962 -5.40063,0.990211 -2.72415,0.542247 -4.9828,0.958187 -5.01922,0.924309 -0.0364,-0.03388 1.56378,-0.841055 3.556,-1.793728 l 3.62226,-1.73213 -3.4716,-1.672984 c -3.44062,-1.658051 -4.25463,-2.122238 -3.34803,-1.909214 1.08088,0.253972 22.57442,3.919233 22.98288,3.919233 0.28225,0 1.89799,-1.908226 4.39698,-5.192933 2.17292,-2.856114 3.95077,-5.295451 3.95077,-5.420749 0,-0.125296 -4.65773,-1.409629 -10.3505,-2.854071 l -10.3505,-2.626256 -7.3886,-3.085653 -7.3886,-3.085654 -8.011643,16.025661 -8.011642,16.025664 9.817349,15.85201 9.817346,15.85201 7.7419,2.61981 c 4.25804,1.4409 7.28469,2.56905 6.72589,2.507 -1.36953,-0.15206 -13.5876,-0.47013 -13.59435,-0.35389 -0.27964,4.81519 -1.25991,25.75308 -1.26186,26.95255 l -0.003,1.7145 h 11.94597 c 9.33354,0 11.96807,-0.0694 12.04704,-0.3175 z m 3.78287,-0.508 c 0.0805,-0.45402 0.5533,-3.74015 1.05061,-7.3025 0.49732,-3.56235 0.93099,-6.56591 0.96372,-6.67458 0.0327,-0.10867 0.44177,3.09173 0.90897,7.112 0.4672,4.02027 0.90151,7.39531 0.96513,7.50008 0.0636,0.10478 4.50273,0.1905 9.86469,0.1905 5.36196,0 9.8013901,-0.0857 9.8654001,-0.1905 0.18923,-0.30975 1.03633,-20.10743 0.86757,-20.27619 -0.0849,-0.0849 -4.3062401,-0.21689 -9.3806901,-0.29323 l -9.22628,-0.13882 -2.7305,-1.36375 -2.7305,-1.36375 v 0.89702 c 0,0.49336 -0.62865,5.69231 -1.397,11.55322 -0.76835,5.86091 -1.397,10.77316 -1.397,10.9161 0,0.14295 0.50163,0.2599 1.11473,0.2599 1.05828,0 1.12215,-0.0418 1.26115,-0.8255 z M 4.2624321,103.08762 C 8.3689721,96.240182 11.669832,90.57869 11.597662,90.506523 10.887332,89.796192 1.5950121,83.58371 1.4554521,83.725833 c -0.10191,0.103769 -3.68091,5.956458 -7.95335,13.005969 -7.6430101,12.610938 -7.7587901,12.822398 -7.1916001,13.134088 6.8814501,3.78156 10.2532301,5.61841 10.3569801,5.64218 0.0707,0.0162 3.48840002,-5.57301 7.59495,-12.42045 z m -11.9349,-10.273171 c 5.30942,-8.654019 9.62917,-15.757571 9.59946,-15.785674 -0.3695,-0.349537 -12.4486701,-8.481268 -12.5983901,-8.481268 -0.19493,0 -18.19229,32.568233 -18.36278,33.229513 -0.0935,0.36249 11.25523,7.193 11.5287,6.93885 0.0988,-0.0918 4.5236,-7.24741 9.8330101,-15.901421 z M -21.889538,82.160825 c 6.49518,-11.982389 10.36071,-19.369722 10.21287,-19.517568 -0.13084,-0.130836 -3.75933,-2.103951 -8.06333,-4.384698 l -7.82544,-4.146815 -5.15721,11.196291 c -2.83647,6.157959 -5.12823,11.224866 -5.0928,11.259794 0.0354,0.03493 3.01904,1.073569 6.63023,2.30809 3.61119,1.234524 6.55821,2.358888 6.54892,2.498588 -0.009,0.1397 -2.15928,3.670272 -4.77776,7.845715 l -4.76087,7.591714 -4.4039,-0.13223 c -2.42214,-0.07273 -4.35023,-0.07857 -4.28465,-0.01298 0.37445,0.374444 10.22069,5.062454 10.35783,4.931594 0.0909,-0.0868 4.8682,-8.833664 10.61611,-19.437488 z m -14.46823,-16.534318 c 2.35681,-5.1689 4.20764,-9.47319 4.11294,-9.565089 -0.2197,-0.213197 -13.77637,-4.348798 -13.88415,-4.235503 -0.0652,0.06858 -6.30087,14.190342 -8.01156,18.14369 l -0.45051,1.041097 4.4229,1.955067 c 3.7254,1.646747 4.79289,2.007273 6.76901,2.286109 1.69771,0.23955 2.40279,0.253875 2.55118,0.05183 0.11278,-0.15356 2.13337,-4.508304 4.49019,-9.677204 z"
       id="path9058" /></g></svg>
