<?xml version="1.0" encoding="UTF-8" standalone="no"?>
<!-- Created with Inkscape (http://www.inkscape.org/) -->

<svg
   width="507.70779mm"
   height="142.01654mm"
   viewBox="0 0 507.70778 142.01654"
   version="1.1"
   id="svg5"
   xml:space="preserve"
   inkscape:version="1.2.2 (732a01da63, 2022-12-09)"
   sodipodi:docname="Asset - Pan w.svg"
   xmlns:inkscape="http://www.inkscape.org/namespaces/inkscape"
   xmlns:sodipodi="http://sodipodi.sourceforge.net/DTD/sodipodi-0.dtd"
   xmlns="http://www.w3.org/2000/svg"
   xmlns:svg="http://www.w3.org/2000/svg"><sodipodi:namedview
     id="namedview7"
     pagecolor="#505050"
     bordercolor="#eeeeee"
     borderopacity="1"
     inkscape:showpageshadow="0"
     inkscape:pageopacity="0"
     inkscape:pagecheckerboard="0"
     inkscape:deskcolor="#505050"
     inkscape:document-units="mm"
     showgrid="false"
     inkscape:zoom="0.35355339"
     inkscape:cx="855.59921"
     inkscape:cy="438.4062"
     inkscape:window-width="2560"
     inkscape:window-height="1377"
     inkscape:window-x="1072"
     inkscape:window-y="333"
     inkscape:window-maximized="1"
     inkscape:current-layer="layer1" /><defs
     id="defs2" /><g
     inkscape:label="Layer 1"
     inkscape:groupmode="layer"
     id="layer1"
     transform="translate(258.00419,96.239855)"><path
       style="fill:#000000;stroke-width:0.254"
       d="m 75.736496,45.678615 c -4.16766,-0.0747 -17.85531,-0.74302 -22.606,-1.10384 -22.07661,-1.67671 -40.10439,-4.40627 -58.5470004,-8.8645 -1.60655,-0.38836 -3.1496,-0.71435 -3.429,-0.72442 -0.72333,-0.0261 -7.6849396,-2.07158 -12.3206496,-3.62014 -15.11028,-5.04758 -27.861,-12.15346 -33.29545,-18.55529 -3.32654,-3.9186902 -5.3109,-8.2645702 -5.3109,-11.6311902 0,-1.01061 -0.66034,-3.23868 -1.02702,-3.4653 -0.11961,-0.0739 -1.90914,-0.35552 -3.97673,-0.62577 -6.05842,-0.79187 -9.26541,-1.22965 -11.01254,-1.50329 -1.58688,-0.24855 -8.8352,-1.1465 -11.66971,-1.44569 -3.79094,-0.40015 -13.107716,-2.13859 -18.922996,-3.5309 -9.48138,-2.2700398 -14.94623,-4.4649098 -19.6258,-7.8823598 -4.02141,-2.9368 -9.26029,-4.71294 -17.9662,-6.09109 -4.95233,-0.78396 -12.74536,-1.51397 -19.05,-1.7845 -2.0955,-0.0899 -4.08395,-0.20556 -4.41878,-0.25698 -0.33482,-0.0514 -4.79252,-0.2113 -9.906,-0.3553 -27.55843,-0.77605 -37.41201,-1.15135 -44.09522,-1.67946 -19.03089,-1.50383 -29.57218,-4.30066 -34.20613,-9.07562 -2.9226,-3.01155 -3.15284,-8.06847 -0.53168,-11.67814 1.94458,-2.67795 6.48919,-4.75785 13.40181,-6.13353 5.04175,-1.00336 10.73836,-1.44606 20.447,-1.58899 20.42115,-0.30063 42.53072,1.46416 80.137,6.39656 5.53085,0.72542 24.67066,3.54307 32.004,4.71144 1.8161,0.28935 4.3307,0.68827 5.588,0.88649 1.2573,0.19821 5.029196,0.82234 8.381996,1.38695 7.12801,1.20036 22.73816,3.27305 22.72972,3.01803 -0.002,-0.0545 -0.2349,-0.83807 -0.51801,-1.74133 -0.67706,-2.16022 -1.09295,-7.50411 -0.73697,-9.46963 1.90503,-10.51861 15.41647,-20.1374 39.70028,-28.26262 13.19994,-4.41663 31.0283796,-8.70428 46.39398,-11.15752 19.49508,-3.11255 32.26024,-4.45573 53.594,-5.63927 11.69634,-0.64888 34.89343,-0.58977 48.768004,0.12428 5.79755,0.29837 10.9982,0.59998 11.557,0.67023 0.5588,0.0703 3.24485,0.30187 5.969,0.5147 25.62022,2.00161 53.61186,6.71965 73.279,12.35133 26.14945,7.48787 41.55834,16.63811 44.64047,26.5088 0.44885,1.43738 0.5539,2.38624 0.54844,4.953 -0.007,3.39721 -0.40213,5.19707 -1.70919,7.79036 -0.61247,1.21519 -0.98336,2.34291 -4.49659,13.67264 -0.99634,3.2131 -2.61089,8.41374 -3.58787,11.55699 -4.91313,15.8069498 -6.05826,19.6419298 -6.05826,20.2885298 0,1.00824 -1.11196,4.1384 -2.05671,5.78966 -7.78607,13.6086402 -35.72475,25.4761702 -75.28629,31.9794002 -25.18118,4.13935 -50.73053,5.80547 -80.772004,5.26728 z M 109.1375,-3.6604152 c 30.71063,-1.87039 53.91099,-5.17996 78.486,-11.1961698 10.12401,-2.47847 28.95199,-8.52969 28.55222,-9.17655 -0.21763,-0.35209 -6.67004,-3.52856 -10.17118,-5.00716 -14.84114,-6.26775 -35.75898,-11.54763 -57.87804,-14.60901 -7.90989,-1.09477 -15.97769,-2.00198 -21.717,-2.44203 -1.88595,-0.1446 -4.8006,-0.37666 -6.477,-0.51568 -14.6035,-1.21105 -39.842264,-1.43442 -57.404004,-0.50805 -32.79643,1.73 -62.1305104,6.73766 -84.79571,14.47556 -6.75089,2.30476 -13.97995,5.38703 -18.32829,7.81468 -3.50737,1.95815 -3.93366,2.21457 -3.93539,2.36726 -0.002,0.17314 6.42412,2.44468 10.38704,3.67169 11.60937,3.59452 26.1101896,6.91975 39.9033496,9.1503598 3.00355,0.48574 6.1468004,0.99511 6.9850004,1.13194 13.82098,2.25617 38.0826,4.45841 56.007,5.08378 7.50827,0.26196 34.804274,0.0993 40.386004,-0.24062 z M -223.59492,-41.660225 c 3.54977,-0.43929 6.74043,-1.18418 8.10145,-1.89135 l 0.90797,-0.47178 -1.17173,-0.52395 c -2.79524,-1.24992 -10.13429,-2.31157 -15.94261,-2.30622 -2.95378,0.003 -8.71213,0.51487 -11.5261,1.02514 -1.72154,0.31218 -4.9737,1.36968 -5.34063,1.73661 -0.54983,0.54982 3.94834,1.84729 8.3683,2.41378 3.86276,0.49508 12.67023,0.5045 16.60335,0.0178 z"
       id="path441" /></g></svg>
