<?xml version="1.0" encoding="UTF-8" standalone="no"?>
<!-- Created with Inkscape (http://www.inkscape.org/) -->

<svg
   width="370.38986mm"
   height="434.88831mm"
   viewBox="0 0 370.38986 434.88831"
   version="1.1"
   id="svg5001"
   inkscape:version="1.1 (c68e22c387, 2021-05-23)"
   sodipodi:docname="Asset - Scythe 2.svg"
   xmlns:inkscape="http://www.inkscape.org/namespaces/inkscape"
   xmlns:sodipodi="http://sodipodi.sourceforge.net/DTD/sodipodi-0.dtd"
   xmlns="http://www.w3.org/2000/svg"
   xmlns:svg="http://www.w3.org/2000/svg">
  <sodipodi:namedview
     id="namedview5003"
     pagecolor="#505050"
     bordercolor="#eeeeee"
     borderopacity="1"
     inkscape:pageshadow="0"
     inkscape:pageopacity="0"
     inkscape:pagecheckerboard="0"
     inkscape:document-units="mm"
     showgrid="false"
     fit-margin-top="0"
     fit-margin-left="0"
     fit-margin-right="0"
     fit-margin-bottom="0"
     inkscape:zoom="0.25"
     inkscape:cx="198"
     inkscape:cy="858"
     inkscape:window-width="2560"
     inkscape:window-height="1377"
     inkscape:window-x="1072"
     inkscape:window-y="333"
     inkscape:window-maximized="1"
     inkscape:current-layer="layer1" />
  <defs
     id="defs4998" />
  <g
     inkscape:label="Layer 1"
     inkscape:groupmode="layer"
     id="layer1"
     transform="translate(-73.183255,-139.10843)">
    <path
       id="path2571-7"
       style="fill:#000000;fill-opacity:1;stroke:#000000;stroke-width:5;stroke-miterlimit:4;stroke-dasharray:none;stroke-opacity:1"
       transform="rotate(42.249427)"
       d="m 472.26436,339.1703 c 0.63154,2.97118 -1.2651,5.89177 -4.23628,6.52332 -23.07004,2.84712 -10.59592,1.27656 -23.07004,2.84712 -12.47417,1.57061 -23.24387,2.89876 -23.93274,2.95142 -1.1891,0.091 -1.27594,0.10899 -1.84132,-0.13403 -0.58503,-0.25147 -1.24023,-0.67382 -1.41169,-1.28709 -0.33368,-1.19349 -0.0343,-1.19946 1.04987,-3.56646 0.76561,-1.67153 1.22663,-2.75648 1.69686,-3.99323 0.26041,-0.68485 0.45791,-1.15672 1.64242,-3.92314 2.85361,-6.66463 6.50732,-15.81566 9.07175,-22.72093 18.67824,-50.29573 26.68419,-95.80826 24.89012,-141.49712 -0.21571,-5.49357 -0.81153,-14.51854 -0.99528,-15.07534 -0.0881,-0.26736 -0.19881,-1.21701 -0.22379,-1.92147 -0.01,-0.28749 -0.0735,-0.9092 -0.14044,-1.38156 -0.0672,-0.47237 -0.0955,-0.89227 -0.0633,-0.93309 0.0327,-0.0405 -0.006,-0.51608 -0.0868,-1.05611 -0.08,-0.54002 -0.21088,-1.74713 -0.29102,-2.68246 -0.0801,-0.93531 -0.16487,-1.90854 -0.18829,-2.1627 -0.0235,-0.25416 -0.0547,-0.66766 -0.0693,-0.91895 -0.0783,-1.33658 -1.26088,-9.90686 -2.15245,-15.5992 -2.06945,-13.21271 -4.42592,-25.01886 -9.46377,-47.414827 -6.68193,-29.70497 -8.05663,-36.599132 -9.16765,-45.976852 -3.9291,-33.1641314 -0.56479,-77.523786 9.87215,-130.168081 0.72483,-3.656149 0.72208,-3.719853 -0.18095,-4.177414 -0.66403,-0.336401 -0.44579,-0.338503 -4.84655,0.0446 -18.58706,1.617851 -36.56666,4.97396 -54.01534,10.082624 -39.23861,11.488372 -75.31708,31.971446 -104.90896,59.560706 -8.38854,7.820863 -15.56527,15.5389784 -22.11435,23.7826168 -2.80231,3.5282074 -3.01688,3.7789448 -3.27807,3.8401618 -0.39188,0.091906 -0.77334,-0.009 -0.99051,-0.262435 -0.22602,-0.2638487 -0.1833,-1.7882398 0.16908,-6.0188517 0.26589,-3.1925778 0.50019,-5.1600278 0.93803,-7.8770029 3.78857,-23.509979 15.60882,-44.326609 35.2925,-62.153672 19.06695,-17.268466 45.4998,-31.757553 78.26118,-42.898573 16.29114,-5.54006 33.31129,-10.04161 51.92785,-13.73399 11.06839,-2.19531 21.22511,-3.85062 31.3818,-5.11449 2.009,-0.25 2.5028,-0.39363 2.84526,-0.82765 0.0675,-0.0856 0.57238,-1.74252 1.12184,-3.6821 1.03459,-3.65197 1.08211,-3.76239 1.66648,-3.87604 0.31826,-0.0619 12.39553,1.78678 12.79221,1.95807 0.60618,0.26176 0.58196,0.46338 -0.52365,4.35942 -3.30076,11.63105 -7.52433,29.49626 -10.81038,45.726217 -11.42378,56.422511 -14.68496,104.219326 -9.37495,137.401429 1.008,6.2991 2.869,15.18593 7.32537,34.980886 7.17704,31.880448 9.89327,46.364448 12.18327,64.965958 0.17732,1.44052 0.35823,2.68591 0.402,2.76751 0.23281,0.43393 0.18556,0.43238 14.80595,0.48345 10.73516,0.0375 0,0 14.4487,-0.0826 3.03757,0 5.4739,2.2376 5.4739,5.27517 0,3.03757 -2.46243,5.5 -5.5,5.5 -1.4935,-0.0626 -27.2672,-0.15048 -27.49973,-0.091 -0.63926,0.1635 -0.65545,0.32951 -0.39378,4.03928 1.25979,17.85946 1.15465,33.89661 -0.33673,51.35625 -0.82521,9.66119 -1.82056,17.62243 -3.36358,26.90305 -5.00791,30.12115 -13.81896,60.31658 -27.16199,93.08385 -1.25156,3.07363 -1.38108,3.44914 -1.27089,3.68583 0.0761,0.16331 0.24664,0.31701 0.44823,0.40404 0.28926,0.12494 0.93885,0.0635 5.83622,-0.55159 3.03087,-0.38067 9.08038,-1.14 13.44339,-1.68736 4.36293,-0.54735 0,0 8.31295,-1.1222 2.97119,-0.63154 5.97365,1.07544 6.60519,4.04663 z"
       sodipodi:nodetypes="scssaassscscccscsscssssscsscssssssssssssssssssscscssssssssscs" />
  </g>
</svg>
