<?xml version="1.0" encoding="UTF-8" standalone="no"?>
<!-- Created with Inkscape (http://www.inkscape.org/) -->

<svg
   width="289.81738mm"
   height="289.77884mm"
   viewBox="0 0 289.81738 289.77883"
   version="1.1"
   id="svg8913"
   xml:space="preserve"
   inkscape:version="1.2.2 (732a01da63, 2022-12-09)"
   sodipodi:docname="Asset - Ball.svg"
   xmlns:inkscape="http://www.inkscape.org/namespaces/inkscape"
   xmlns:sodipodi="http://sodipodi.sourceforge.net/DTD/sodipodi-0.dtd"
   xmlns="http://www.w3.org/2000/svg"
   xmlns:svg="http://www.w3.org/2000/svg"><sodipodi:namedview
     id="namedview8915"
     pagecolor="#505050"
     bordercolor="#eeeeee"
     borderopacity="1"
     inkscape:showpageshadow="0"
     inkscape:pageopacity="0"
     inkscape:pagecheckerboard="0"
     inkscape:deskcolor="#505050"
     inkscape:document-units="mm"
     showgrid="false"
     inkscape:zoom="0.457453"
     inkscape:cx="560.71334"
     inkscape:cy="111.48686"
     inkscape:window-width="2560"
     inkscape:window-height="1377"
     inkscape:window-x="1072"
     inkscape:window-y="333"
     inkscape:window-maximized="1"
     inkscape:current-layer="layer1" /><defs
     id="defs8910" /><g
     inkscape:label="Layer 1"
     inkscape:groupmode="layer"
     id="layer1"
     transform="translate(345.48269,2.9150768)"><path
       style="fill:#000000;stroke-width:0.0708218"
       d="m -207.06821,286.79791 c -15.0709,-0.69435 -29.9092,-3.68582 -43.8741,-8.84519 -2.0257,-0.7484 -4.6388,-1.78275 -4.6388,-1.83617 0,-0.0241 1.6808,-0.55638 3.7352,-1.18292 l 3.7353,-1.13919 1.9836,0.66586 c 19.989,6.71002 38.5801,10.36962 58.2161,11.45969 1.0517,0.0584 2.1671,0.10836 2.4788,0.11107 1.0198,0.009 0.3676,0.12309 -1.7706,0.31016 -2.39,0.2091 -4.6901,0.36528 -6.8343,0.46408 -1.7725,0.0817 -11.2143,0.0763 -13.0312,-0.007 z m 23.1941,-7.64212 c -19.5278,-0.73843 -38.1333,-4.11002 -57.5685,-10.43229 -0.8628,-0.28067 -1.136,-0.39858 -1.1768,-0.50797 -0.2306,-0.61889 -0.3492,-13.96386 -0.1564,-17.60002 0.3989,-7.52361 0.9256,-12.57688 1.9637,-18.83858 0.2944,-1.77627 0.7816,-4.38622 0.8265,-4.42776 0.012,-0.0105 0.5944,0.21947 1.2955,0.5111 34.0051,14.14392 67.1948,20.63586 97.309,19.03373 15.4209,-0.82042 29.9937,-3.70138 43.697099,-8.63873 2.4269,-0.87443 5.7807,-2.18953 7.7403,-3.03516 0.4607,-0.1988 0.5676,-0.22538 0.4958,-0.12327 -0.1434,0.20378 -2.6065,3.03617 -3.4748,3.99565 -3.2191,3.55731 -7.368199,7.69333 -10.887399,10.85306 -11.8343,10.62556 -25.4421,19.29383 -40.026,25.49672 -2.6874,1.143 -2.7453,1.1626 -4.0959,1.38522 -6.8684,1.13207 -13.3334,1.81382 -21.1403,2.22928 -2.3864,0.12699 -12.3071,0.19336 -14.8018,0.099 z m -82.9044,-8.19188 c -10.9921,-5.63967 -21.3275,-12.76348 -30.5874,-21.08268 -2.9632,-2.66205 -7.27,-6.91155 -9.8088,-9.67831 -3.977,-4.33375 -7.4681,-8.6 -10.9232,-13.34811 l -0.9276,-1.27479 -0.1806,-1.48726 c -3.6968,-30.44237 1.9485,-58.93119 16.8125,-84.84446 9.5238,-16.60344 22.8125,-32.03221 39.8366,-46.252211 4.5595,-3.80855 9.7888,-7.79504 15.262,-11.63494 3.2211,-2.25981 9.9949,-6.73771 10.1924,-6.73771 0.087,0 1.2403,1.37964 3.1904,3.81474 6.496,8.1117 12.4513,16.94359 17.5324,26.001221 2.9575,5.27178 6.0041,11.36392 8.3586,16.71394 3.9742,9.03052 7.3181,18.55755 9.8405,28.03656 0.3338,1.2544 0.3866,1.52867 0.3079,1.60056 -0.052,0.0477 -0.6685,0.52817 -1.3696,1.06766 -4.0624,3.12578 -8.2819,6.70064 -11.8627,10.05023 -1.3236,1.23819 -4.9334,4.85152 -6.2999,6.30605 -10.1612,10.8162 -17.9033,22.75211 -23.1294,35.65875 -5.3617,13.2416 -8.3219,27.52057 -9.132,44.05113 -0.2487,5.07484 -0.266,12.65473 -0.04,17.59655 0.037,0.81653 0.058,1.49402 0.047,1.50555 -0.016,0.0162 -13.6809,4.19797 -15.2068,4.65374 l -0.3263,0.0974 z m 113.0745,-30.68883 c -24.0546,-0.86428 -49.3479,-6.62733 -82.3661,-18.76696 -1.2852,-0.47251 -2.3627,-0.88465 -2.3944,-0.91587 -0.032,-0.0312 0.074,-0.54711 0.2356,-1.1464 4.6275,-17.1968 11.1789,-30.07305 21.3458,-41.9538 5.9017,-6.89661 13.7258,-14.03986 23.1806,-21.16363 l 0.7239,-0.54551 1.684,0.32345 c 17.376,3.33747 35.8538,4.33155 53.8442,2.89676 24.6282,-1.96419 48.439199,-8.32051 70.742999,-18.88477 2.9747,-1.40898 8.1573,-4.06094 10.3754,-5.30911 0.2683,-0.151 0.5033,-0.25918 0.522,-0.24041 0.1984,0.19836 0.1906,12.2384 -0.01,15.44438 -0.9958,15.91766 -4.0301,30.0133 -9.5514,44.36982 -3.5553,9.24474 -8.11,18.12776 -13.7628,26.84145 l -0.9419,1.45185 -1.1259,0.61465 c -17.2776,9.43162 -35.107299,14.83831 -54.477799,16.51987 -1.5027,0.13044 -3.975,0.29481 -5.9845,0.39785 -1.9153,0.0982 -9.9245,0.14238 -12.0396,0.0663 z m -173.9581,-28.52 c -10.1807,-18.52994 -16.1601,-38.99776 -17.5405,-60.04215 -0.2354,-3.58861 -0.2823,-5.20892 -0.28,-9.66717 0,-4.77635 0.1342,-8.75536 0.3539,-10.69409 0.189,-1.66742 0.5941,-3.33849 1.5964,-6.58642 3.8069,-12.33458 8.9775,-24.17596 15.5712,-35.659991 5.667,-9.87003 12.6288,-19.6538 20.2828,-28.50452 3.1607,-3.6548 5.5897,-6.25871 9.3891,-10.06457 3.8645,-3.87117 6.2207,-6.08273 9.9176,-9.30873 2.1595,-1.88443 6.5783,-5.55596 6.6868,-5.55596 0.1238,0 4.8736,3.14845 7.1943,4.7688 11.8439,8.26981 21.7882,16.99892 32.4607,28.49444 l 0.3432,0.36956 -0.9684,0.62346 c -12.557,8.08426 -23.3952,16.43868 -33.6046,25.90336 -1.9866,1.84172 -7.7313,7.585301 -9.5322,9.530511 -3.8996,4.21192 -7.3079,8.21687 -10.4857,12.32146 -16.0556,20.73815 -25.899,43.38911 -29.4515,67.77154 -1.1467,7.8713 -1.6133,15.68396 -1.4399,24.11145 0.035,1.6704 0.05,3.05013 0.033,3.06605 -0.016,0.0159 -0.2529,-0.37873 -0.5267,-0.87703 z m 168.8235,-59.13561 c -0.4869,-0.0104 -1.9689,-0.068 -3.2932,-0.12799 -9.4395,-0.42758 -18.5912,-1.46632 -27.4889,-3.12008 l -1.4265,-0.26514 -0.3358,-1.28166 c -3.551,-13.55605 -9.1236,-28.01452 -15.5752,-40.41068 -11.3572,-21.821801 -26.1155,-40.947221 -44.1261,-57.183361 -10.0431,-9.0536 -21.116,-17.15963 -32.7325,-23.962098 -1.1223,-0.657249 -2.0952,-1.225203 -2.162,-1.26212 -0.099,-0.0549 0.1522,-0.261764 1.381,-1.13631 8.0649,-5.739412 16.8571,-10.734195 25.7589,-14.6335055 8.3661,-3.66463 16.7859,-6.456653 25.6789,-8.51508195 l 1.4225,-0.329254 1.3041,0.49341 c 13.803,5.22214295 26.3492,12.31804145 37.3879,21.14586245 4.144,3.314085 7.3592,6.194208 11.2313,10.060917 3.7412,3.73615 6.3561,6.60509 9.491,10.4134 13.8207,16.78959 24.689,37.65033 32.3222,62.039861 4.2523,13.58701 7.5878,28.6643 9.7373,44.01572 0.1773,1.26594 0.3393,2.40528 0.3599,2.53188 0.021,0.12659 0.01,0.23017 -0.022,0.23017 -0.033,0 -0.7756,0.079 -1.6498,0.17564 -4.9904,0.55143 -10.1636,0.91517 -15.6123,1.09771 -1.8583,0.0623 -9.1365,0.0764 -11.6501,0.0227 z m 35.803,-2.51774 c -0.022,-0.12659 -0.1834,-1.21813 -0.3597,-2.42564 -5.3869,-36.89195 -15.9201,-67.926411 -31.5369,-92.918151 -6.1972,-9.91759 -13.2183,-18.84305 -21.0798,-26.797435 -10.0861,-10.205232 -20.9157,-18.3197785 -33.6214,-25.1923425 -1.7532,-0.948272 -6.1966,-3.16831195 -7.983,-3.98843 -0.6794,-0.311881 -1.1893,-0.582646 -1.1332,-0.601698 0.1451,-0.04927 3.0765,-0.367613 4.9179,-0.534083 2.2181,-0.200523 5.4668,-0.408513 7.8966,-0.505561 2.6713,-0.106693 10.5695,-0.04427 13.1374,0.103835 9.3652,0.540122 17.4482,1.715032 26.452,3.844916 l 1.6643,0.3937 1.6643,1.098171 c 7.2523,4.785318 14.0705,10.0707195 20.7331,16.0721385 5.0418,4.541494 10.5131,10.103639 15.1052,15.356019 13.8219,15.8096 25.2747,34.30458 34.097599,55.06391 5.7032,13.418891 10.3265,27.971631 13.6347,42.917991 0.6074,2.74383 1.2121,5.68029 1.1771,5.71531 -0.065,0.0654 -4.3116,1.75054 -6.1804,2.45274 -12.1202,4.55413 -24.190599,7.79934 -37.041199,9.95874 -0.7071,0.11882 -1.3351,0.21604 -1.3955,0.21604 -0.069,0 -0.1245,-0.0863 -0.1491,-0.23017 z m 51.236999,-15.38212 c 0,-0.0615 -0.1922,-1.01181 -0.4271,-2.11171 -8.5928,-40.241451 -25.6874,-75.660941 -49.832099,-103.250711 -2.7887,-3.186501 -4.7823,-5.320147 -8.0553,-8.621032 -4.0126,-4.04685 -7.3998,-7.199398 -11.3034,-10.520071 -1.5769,-1.3415155 -1.5139,-1.2794405 -1.1331,-1.1151535 2.7991,1.2077485 7.8466,3.6650715 10.8003,5.2580205 16.7369,9.026144 31.4776,21.203696 43.582399,36.004256 17.1196,20.93226 28.0617,46.49137 31.4128,73.375121 0.4098,3.28828 0.3946,3.1034 0.2627,3.20869 -0.1727,0.13775 -4.0333,2.26434 -6.1004,3.36035 -2.125,1.12669 -4.5705,2.35478 -7.0888,3.55982 -2.068,0.98954 -2.118,1.0097 -2.118,0.85242 z M -334.52831,86.521499 c 0.021,-0.0584 0.2771,-0.66396 0.5692,-1.34561 9.0481,-21.11265 22.8574,-39.67745 40.5431,-54.50505 0.7151,-0.59952 1.3379,-1.08978 1.384,-1.08948 0.046,2.8e-4 0.7213,0.35947 1.5003,0.79814 2.2826,1.28526 2.5172,1.42365 2.4975,1.47284 -0.01,0.0257 -0.8068,0.70624 -1.7702,1.51233 -17.4611,14.61157 -32.3316,32.11786 -43.6795,51.4217 -0.5954,1.01275 -1.0653,1.79355 -1.0444,1.73513 z"
       id="path9077" /></g></svg>
