<?xml version="1.0" encoding="UTF-8" standalone="no"?>
<!-- Created with Inkscape (http://www.inkscape.org/) -->

<svg
   width="560.35504mm"
   height="82.324753mm"
   viewBox="0 0 560.35503 82.324752"
   version="1.1"
   id="svg1021"
   xml:space="preserve"
   inkscape:version="1.2.2 (732a01da63, 2022-12-09)"
   sodipodi:docname="Asset - Chef Knife.svg"
   xmlns:inkscape="http://www.inkscape.org/namespaces/inkscape"
   xmlns:sodipodi="http://sodipodi.sourceforge.net/DTD/sodipodi-0.dtd"
   xmlns="http://www.w3.org/2000/svg"
   xmlns:svg="http://www.w3.org/2000/svg"><sodipodi:namedview
     id="namedview1023"
     pagecolor="#505050"
     bordercolor="#eeeeee"
     borderopacity="1"
     inkscape:showpageshadow="0"
     inkscape:pageopacity="0"
     inkscape:pagecheckerboard="0"
     inkscape:deskcolor="#505050"
     inkscape:document-units="mm"
     showgrid="false"
     inkscape:zoom="0.457453"
     inkscape:cx="801.1752"
     inkscape:cy="-41.534322"
     inkscape:window-width="2560"
     inkscape:window-height="1377"
     inkscape:window-x="1072"
     inkscape:window-y="333"
     inkscape:window-maximized="1"
     inkscape:current-layer="layer1" /><defs
     id="defs1018" /><g
     inkscape:label="Layer 1"
     inkscape:groupmode="layer"
     id="layer1"
     transform="translate(50.146753,0.87456232)"><path
       style="fill:#000000;stroke-width:0.254"
       d="M 250.51023,81.223728 C 218.93915,80.601964 181.36607,78.967129 145.73523,76.66488 128.58049,75.556444 124.64877,75.2307 111.95323,73.866013 59.580559,68.236307 14.602195,58.591124 -19.491761,45.678884 -30.732187,41.421854 -42.099055,36.001875 -48.604051,31.797495 l -1.542702,-0.997098 2.055996,-0.808914 c 5.574649,-2.193295 11.427548,-3.804897 19.962997,-5.496831 C -3.927505,19.697567 36.814362,15.938133 87.569234,13.81877 105.3,13.078388 116.05475,12.882508 200.47223,11.762419 c 86.57353,-1.148697 88.48044,-1.192253 93.97999,-2.1466047 2.05776,-0.3570859 8.33501,-0.9419818 16.3195,-1.5205964 3.87668,-0.2809341 10.16318,-0.7372705 13.97,-1.0140797 30.6512,-2.2287738 91.02364,-5.0110848 162.58763,-7.49297718 15.64147,-0.54246018 18.08932,-0.57704482 18.6944,-0.2641473 1.25362,0.6482715 3.02753,2.69135348 3.62107,4.17052758 0.52142,1.2994361 0.57026,1.830578 0.56282,6.1218877 -0.009,5.250795 -0.48171,8.177728 -2.28176,14.130665 -1.34557,4.4499 -1.77925,5.378392 -4.78902,10.253335 -6.94667,11.251517 -12.91887,18.806831 -18.92937,23.947201 -3.22202,2.755562 -4.62656,3.479836 -6.74827,3.479836 -2.48164,0 -3.01102,-0.319601 -11.86373,-7.162607 -1.91494,-1.480223 -4.45646,-3.28009 -5.64782,-3.999703 -11.38751,-6.87837 -24.67199,-7.842531 -44.05754,-3.197608 -8.27776,1.983415 -12.99116,2.807901 -20.34591,3.558995 -15.59687,1.592811 -35.48161,0.898215 -54.56369,-1.905973 -5.63222,-0.827677 -12.8365,-1.504066 -17.90185,-1.680759 -4.51619,-0.157533 -21.7334,0.241729 -28.62646,0.663844 -5.95073,0.364409 -8.4854,2.112689 -8.71291,6.009719 l -0.0853,1.461701 -2.01439,0.677452 c -4.66931,1.570327 -8.35759,4.318525 -11.00719,8.201637 -2.37996,3.487943 -4.2956,9.196527 -4.80774,14.326979 -0.14262,1.428742 -0.33157,2.714617 -0.41986,2.8575 -0.17625,0.285171 -1.72677,0.283802 -16.89458,-0.01491 z m 95.12299,-46.421835 c 1.73373,-0.821512 3.23263,-2.340087 4.01965,-4.072374 0.41222,-0.907339 0.53556,-1.694483 0.54288,-3.464573 0.009,-2.085348 -0.0652,-2.442225 -0.82423,-3.984816 -0.94191,-1.914291 -1.84544,-2.786024 -3.8653,-3.729301 -1.15786,-0.540721 -1.76659,-0.652011 -3.556,-0.650121 -1.83634,0.002 -2.39844,0.111681 -3.76128,0.734324 -2.93403,1.340483 -4.62211,4.064275 -4.6193,7.453425 0,0.937735 0.12538,2.162172 0.27689,2.720972 0.63216,2.331481 2.62758,4.460756 4.99539,5.330508 0.52212,0.191782 1.92085,0.356661 3.1083,0.366395 1.86736,0.01532 2.36487,-0.07985 3.683,-0.704439 z m 60.17842,-0.02002 c 1.59169,-0.783217 2.9387,-2.130161 3.72216,-3.722027 0.53312,-1.083196 0.61524,-1.607089 0.61415,-3.917419 -0.003,-2.881991 -0.29098,-3.775977 -1.80703,-5.577691 -2.22164,-2.640264 -6.72397,-3.511273 -10.10788,-1.955447 -1.90477,0.875762 -2.82857,1.777604 -3.76012,3.670839 -0.75902,1.54259 -0.83286,1.899468 -0.82423,3.984815 0.007,1.770091 0.13066,2.557234 0.54288,3.464573 0.96743,2.129455 2.89514,3.835469 5.16265,4.568932 0.34925,0.112971 1.6637,0.181396 2.921,0.152057 1.83312,-0.04278 2.53373,-0.175242 3.53642,-0.668632 z m 60.29858,-0.142161 c 2.69042,-1.471803 4.16143,-4.00079 4.19318,-7.209006 0.0107,-1.066604 -0.12926,-2.396479 -0.31069,-2.955279 -1.95494,-6.021236 -10.06422,-7.664758 -14.34209,-2.906736 -1.46352,1.627787 -1.94106,3.059359 -1.93791,5.809483 0.003,1.745938 0.11996,2.42884 0.59557,3.447253 1.58362,3.390922 3.95669,4.757641 8.03794,4.629249 2.10418,-0.0662 2.58589,-0.170493 3.764,-0.814964 z"
       id="path1528" /></g></svg>
