<?xml version="1.0" encoding="UTF-8" standalone="no"?>
<!-- Created with Inkscape (http://www.inkscape.org/) -->

<svg
   width="55.214668mm"
   height="70.896698mm"
   viewBox="0 0 55.214668 70.896698"
   version="1.1"
   id="svg7919"
   inkscape:version="1.2.2 (732a01da63, 2022-12-09)"
   sodipodi:docname="Logo - Sheprherds.svg"
   xmlns:inkscape="http://www.inkscape.org/namespaces/inkscape"
   xmlns:sodipodi="http://sodipodi.sourceforge.net/DTD/sodipodi-0.dtd"
   xmlns="http://www.w3.org/2000/svg"
   xmlns:svg="http://www.w3.org/2000/svg">
  <sodipodi:namedview
     id="namedview7921"
     pagecolor="#505050"
     bordercolor="#eeeeee"
     borderopacity="1"
     inkscape:pageshadow="0"
     inkscape:pageopacity="0"
     inkscape:pagecheckerboard="false"
     inkscape:document-units="mm"
     showgrid="false"
     fit-margin-top="0"
     fit-margin-left="0"
     fit-margin-right="0"
     fit-margin-bottom="0"
     inkscape:zoom="2.8284271"
     inkscape:cx="75.130095"
     inkscape:cy="143.54268"
     inkscape:window-width="2560"
     inkscape:window-height="1377"
     inkscape:window-x="1072"
     inkscape:window-y="333"
     inkscape:window-maximized="1"
     inkscape:current-layer="layer1"
     inkscape:showpageshadow="0"
     inkscape:deskcolor="#505050" />
  <defs
     id="defs7916" />
  <g
     inkscape:label="Layer 1"
     inkscape:groupmode="layer"
     id="layer1"
     transform="translate(-60.218551,-130.22084)">
    <path
       style="fill:#000000;stroke-width:0.264583"
       id="path8036"
       d="" />
    <path
       style="fill:#000000;stroke-width:0.264583"
       id="path7998"
       d="" />
    <path
       id="path8808"
       style="fill:#000000;stroke-width:0.264583"
       d="m 100.22586,200.11906 c 1.93356,0.90007 2.47596,1.04951 3.58061,0.98552 1.87811,-0.10881 4.0534,-0.88552 5.9769,-2.13385 2.6926,-1.74744 3.75174,-2.86564 4.78213,-5.0492 0.77547,-1.64341 0.89778,-2.15817 0.8623,-3.63797 -0.0474,-1.97905 -1.05371,-4.96162 -2.1177,-6.27615 -0.78868,-0.97441 -2.70918,-1.96629 -5.29249,-2.73433 l -1.42673,-0.4242 -1.86992,-4.43335 c -3.41144,-8.08616 -7.063834,-15.81683 -9.059004,-19.17476 -4.84433,-8.15313 -11.639462,-18.09143 -16.183763,-23.66955 l -2.18e-4,4.7e-4 c -1.431459,-1.75714 -2.745463,-3.26071 -2.920518,-3.34138 -1.022505,-0.47122 4.091788,16.75145 7.781636,26.20497 1.018787,2.6101 1.926531,4.77978 2.017079,4.82151 0.09055,0.0417 1.020388,-0.18525 2.066325,-0.50438 1.045949,-0.31914 2.000719,-0.53461 2.121699,-0.47886 0.12099,0.0558 0.34926,0.4887 0.5074,0.96215 0.36258,1.08511 0.86914,1.31922 2.11579,0.97732 0.90932,-0.24937 0.99881,-0.2274 1.13126,0.28008 0.38632,1.48013 8.017364,19.05784 8.553224,19.70185 0.5652,0.67921 0.74638,0.75771 2.20016,0.95476 3.56399,0.48305 4.5256,1.16806 5.72929,4.07931 1.76105,4.25925 0.54355,8.88679 -2.67761,10.17731 -1.37922,0.55256 -3.6093,0.49293 -5.40174,-0.14395 -2.56337,-0.91082 -5.292174,-3.861 -5.505654,-5.95238 -0.0532,-0.52073 0.13656,-1.71863 0.42166,-2.66206 0.28509,-0.94343 0.44447,-2.07686 0.35407,-2.51909 -0.12292,-0.60121 -1.44964,-2.14569 -5.25856,-6.12187 -2.801787,-2.92483 -2e-5,-6e-5 -5.454888,-5.48347 -1.804176,-1.98997 -3.960048,-4.36843 -6.061756,-6.68662 0.642927,-0.3536 2.133527,-0.79769 1.763231,-1.31719 -0.27613,-0.42791 -0.39511,-0.62689 -0.514636,-0.73901 -0.142763,-0.13395 0.253006,-0.76134 1.15362,-1.82915 l 1.370983,-1.6254 -0.868571,-0.96246 c -3.760922,-4.16882 -15.634632,-14.52251 -22.516102,-19.63347 -0.537171,-0.39896 -1.052375,-0.77449 -1.144967,-0.83434 -1.411099,-0.91179 4.154478,9.16496 9.747314,17.64783 1.26148,1.91334 3.427803,5.10176 4.814309,7.08587 l 2.520662,3.60776 5.803254,6.87589 2.343432,2.56504 c 1.288903,1.41069 3.781967,4.03501 5.539985,5.83221 1.75801,1.79721 3.33824,3.59719 3.51166,3.99959 0.18464,0.42841 0.18808,1.66267 0.008,2.97856 -0.25701,1.88121 -0.20931,2.48233 0.29291,3.68952 0.91728,2.20484 2.44799,3.65823 5.203634,4.94092 z" />
  </g>
</svg>
