<?xml version="1.0" encoding="UTF-8" standalone="no"?>
<!-- Created with Inkscape (http://www.inkscape.org/) -->

<svg
   width="501.22772mm"
   height="150.06804mm"
   viewBox="0 0 501.22772 150.06804"
   version="1.1"
   id="svg5"
   xml:space="preserve"
   inkscape:version="1.2.2 (732a01da63, 2022-12-09)"
   sodipodi:docname="Asset - knife.svg"
   xmlns:inkscape="http://www.inkscape.org/namespaces/inkscape"
   xmlns:sodipodi="http://sodipodi.sourceforge.net/DTD/sodipodi-0.dtd"
   xmlns="http://www.w3.org/2000/svg"
   xmlns:svg="http://www.w3.org/2000/svg"><sodipodi:namedview
     id="namedview7"
     pagecolor="#505050"
     bordercolor="#eeeeee"
     borderopacity="1"
     inkscape:showpageshadow="0"
     inkscape:pageopacity="0"
     inkscape:pagecheckerboard="0"
     inkscape:deskcolor="#505050"
     inkscape:document-units="mm"
     showgrid="false"
     inkscape:zoom="0.457453"
     inkscape:cx="628.47986"
     inkscape:cy="568.3644"
     inkscape:window-width="2560"
     inkscape:window-height="1377"
     inkscape:window-x="1072"
     inkscape:window-y="333"
     inkscape:window-maximized="1"
     inkscape:current-layer="layer1" /><defs
     id="defs2" /><g
     inkscape:label="Layer 1"
     inkscape:groupmode="layer"
     id="layer1"
     transform="translate(97.379042,-3.184944)"><path
       style="fill:#000000;stroke-width:0.254"
       d="m 92.842411,152.67346 -143.382991,-0.57972 -3.81,-0.41933 -3.81,-0.41933 -3.201119,-0.62244 -3.201119,-0.62243 -2.740687,-0.76957 -2.740688,-0.76957 -2.440193,-0.91173 -2.440193,-0.91173 -2.676655,-1.33995 -2.676654,-1.33994 -2.403346,-1.60501 -2.403345,-1.60501 -2.262162,-2.16638 -2.262162,-2.16637 -1.437028,-1.92669 -1.43703,-1.92668 -1.162131,-2.26432 -1.162129,-2.26431 -0.64645,-1.81025 -0.646448,-1.81026 -0.407919,-1.97486 -0.407916,-1.97486 -0.231544,-2.43788 -0.231544,-2.43789 0.24401,-56.115096 0.244013,-56.11511 0.0909,-0.0909 0.0909,-0.0909 135.225312,0.50329 135.225317,0.5033 22.606,0.13853 22.606,0.13854 34.29,0.37906 34.29,0.37907 24.511,0.25228 24.511,0.25229 19.304,0.14434 19.304,0.14434 3.683,0.25794 3.683,0.25794 2.56296,0.49339 2.56296,0.4934 1.8255,0.62089 1.82549,0.6209 1.58054,0.80163 1.58054,0.80163 1.20135,0.87997 1.20132,0.87997 1.37932,1.5242 1.37932,1.52419 1.03627,2.07747 1.03629,2.07746 0.62825,2.21876 0.62824,2.21875 0.44547,2.86125 0.44544,2.86124 -0.003,7.112 -0.003,7.112 -0.53754,1.905 -0.53752,1.905 -0.54572,1.44965 -0.54569,1.44964 -1.25095,1.91624 -1.25093,1.91624 -1.05305,1.14242 -1.05304,1.14242 -1.70713,1.26555 -1.70711,1.26554 -2.00721,0.9966 -2.00721,0.99661 -2.07035,0.64696 -2.07038,0.64697 -1.23523,0.16386 -1.23523,0.16386 -0.45354,-1.47284 -0.45352,-1.47283 -0.88539,-1.45751 -0.88539,-1.45751 -1.28877,-1.15873 -1.28877,-1.15872 -1.61156,-0.76912 -1.61155,-0.76912 -1.85316,-0.47373 -1.85316,-0.47374 -2.286,-0.28014 -2.286,-0.28014 -4.20537,-7.6e-4 -4.20536,-7.6e-4 -5.82764,0.38362 -5.82763,0.38362 -5.334,0.37348 -5.334,0.37347 -7.49719,0.26002 -7.49721,0.26003 -7.13994,-0.24863 -7.13994,-0.24863 -3.01585,-0.27238 -3.01587,-0.27239 -3.556,-0.50718 -3.556,-0.50718 -6.223,-1.36063 -6.22299,-1.36062 -2.54,-0.40688 -2.54,-0.40687 -2.81011,-0.2537 -2.8101,-0.25369 -4.9369,-0.0159 -4.93689,-0.0159 -1.651,0.26615 -1.651,0.26615 -1.524,0.38647 -1.524,0.38648 -2.413,1.17641 -2.413,1.1764 -2.16766,2.1876 -2.16767,2.1876 -1.06553,2.159 -1.0655,2.159 -0.557,2.032 -0.55699,2.032 -0.0998,6.604 -0.0997,6.604 -0.17409,38.099996 -0.17409,38.1 -2.286,0.0321 -2.286,0.0321 -143.382999,-0.57972 z M -64.220746,34.917474 l 1.488166,-0.55605 1.546228,-1.54623 1.546227,-1.54623 0.592536,-1.524 0.592534,-1.524 0.0158,-2.032 0.0158,-2.032 -0.801861,-1.70198 -0.80186,-1.70198 -1.175794,-1.17579 -1.175791,-1.1758 -1.446911,-0.67822 -1.446906,-0.67823 h -2.413 -2.413 l -1.441488,0.67574 -1.441485,0.67575 -1.16203,1.07112 -1.162029,1.07112 -0.825485,1.67828 -0.825482,1.67828 v 2.41686 2.41685 l 0.715868,1.45782 0.715866,1.45781 1.156033,1.15603 1.15603,1.15603 1.049101,0.54236 1.049101,0.54237 1.27,0.32963 1.27,0.32962 1.432835,-0.11355 1.432834,-0.11355 z m 428.549296,0.0241 1.18286,-0.52125 1.1925,-1.17133 1.19248,-1.17132 0.56876,-1.29334 0.56875,-1.29334 0.0165,-1.905 0.0168,-1.905 -0.66266,-1.397 -0.66266,-1.397 -0.94062,-0.95627 -0.94061,-0.95628 -1.31762,-0.68255 -1.3176,-0.68255 -2.159,-0.0104 -2.159,-0.0104 -1.29728,0.68269 -1.29731,0.68268 -0.75585,0.63602 -0.75588,0.63601 -0.85959,1.60055 -0.85958,1.60056 -0.008,2.032 -0.008,2.032 0.66365,1.397 0.66365,1.397 0.98735,0.97738 0.98735,0.97739 0.94856,0.48626 0.94854,0.48627 0.95646,0.2402 0.95644,0.2402 1.48414,-0.11493 1.48418,-0.11493 1.18282,-0.52126 z m -55.71314,-0.26586 1.27,-0.6006 1.02207,-1.02206 1.02204,-1.02206 0.62449,-1.27 0.62448,-1.27 -0.008,-2.159 -0.008,-2.159 -0.68255,-1.31761 -0.68254,-1.3176 -0.95626,-0.94062 -0.95629,-0.94061 -1.397,-0.65379 -1.397,-0.6538 -1.905,0.006 -1.905,0.006 -1.29334,0.57036 -1.29334,0.57036 -1.17132,1.1925 -1.17133,1.1925 -0.57078,1.27 -0.57082,1.27 -0.004,1.905 -0.004,1.905 0.65468,1.397 0.65466,1.397 0.98735,0.97738 0.98735,0.97739 1.016,0.52478 1.016,0.52478 0.762,0.20133 0.762,0.20132 1.651,-0.0808 1.651,-0.0808 1.27,-0.6006 z m -56.3419,-0.0168 1.46215,-0.54706 1.30231,-1.30231 1.30231,-1.30231 0.57211,-1.51613 0.57211,-1.51613 -0.11481,-1.778 -0.11483,-1.778 -0.55362,-1.16485 -0.55362,-1.16485 -1.07112,-1.09367 -1.07109,-1.09367 -1.397,-0.64793 -1.397,-0.64793 -1.651,-0.0105 -1.651,-0.0105 -1.397,0.50274 -1.397,0.50274 -1.41983,1.40076 -1.41984,1.40077 -0.47782,1.39449 -0.47783,1.39449 0.0107,1.651 0.0107,1.651 0.54833,1.22729 0.54834,1.22729 0.67686,0.80471 0.67686,0.80471 0.91572,0.67013 0.91574,0.67013 1.143,0.39724 1.143,0.39725 1.45098,0.0121 1.45097,0.0121 1.46215,-0.54706 z"
       id="path321" /></g></svg>
