<?xml version="1.0" encoding="UTF-8" standalone="no"?>
<!-- Created with Inkscape (http://www.inkscape.org/) -->

<svg
   width="399.12378mm"
   height="251.20523mm"
   viewBox="0 0 399.12377 251.20523"
   version="1.1"
   id="svg5"
   xml:space="preserve"
   inkscape:version="1.2.2 (732a01da63, 2022-12-09)"
   sodipodi:docname="Asset - Steak.svg"
   xmlns:inkscape="http://www.inkscape.org/namespaces/inkscape"
   xmlns:sodipodi="http://sodipodi.sourceforge.net/DTD/sodipodi-0.dtd"
   xmlns="http://www.w3.org/2000/svg"
   xmlns:svg="http://www.w3.org/2000/svg"><sodipodi:namedview
     id="namedview7"
     pagecolor="#505050"
     bordercolor="#eeeeee"
     borderopacity="1"
     inkscape:showpageshadow="0"
     inkscape:pageopacity="0"
     inkscape:pagecheckerboard="0"
     inkscape:deskcolor="#505050"
     inkscape:document-units="mm"
     showgrid="false"
     inkscape:zoom="0.5"
     inkscape:cx="837"
     inkscape:cy="530"
     inkscape:window-width="2560"
     inkscape:window-height="1377"
     inkscape:window-x="1072"
     inkscape:window-y="333"
     inkscape:window-maximized="1"
     inkscape:current-layer="layer1" /><defs
     id="defs2" /><g
     inkscape:label="Layer 1"
     inkscape:groupmode="layer"
     id="layer1"
     transform="translate(-6.3736652,28.966797)"><path
       style="fill:#000000;stroke-width:0.254"
       d="m 128.13146,222.04377 -3.937,-0.19466 -2.54,-0.30028 -2.54,-0.30028 -3.556,-0.59738 -3.556,-0.59741 -3.29563,-0.80637 -3.29563,-0.80638 -3.56237,-1.14488 -3.562375,-1.1449 -3.556,-1.3997 -3.556,-1.39971 -4.05712,-1.87836 -4.05711,-1.87838 -3.81689,-2.07104 -3.81689,-2.07104 -3.175,-1.88925 -3.175,-1.88925 -4.75808,-3.15849 -4.75809,-3.15849 -4.55566,-3.40907 -4.55566,-3.40906 -3.00525,-2.4659 -3.00526,-2.46594 -3.048,-2.68181 -3.048,-2.68183 -3.556,-3.56624 -3.556,-3.56626 -1.81037,-2.15349 -1.81037,-2.15349 -1.70697,-2.413 -1.70698,-2.413 -1.36396,-2.794 -1.36396,-2.794 -0.62687,-2.286 -0.62687,-2.286 -1.05316,-3.937 -1.05316,-3.937 -1.73833,-5.461 -1.73833,-5.461 -4.11572,-22.60599 -4.1157298,-22.606006 -0.013,-5.08 -0.013,-5.08 0.55122,-2.54 0.55122,-2.54 0.2691,-0.954222 0.2691,-0.954225 0.68609,0.134566 0.68608,0.134565 -0.5715,-0.251659 -0.5715,-0.251655 v -0.242049 -0.242047 l 1.54687,-3.893637 1.5468598,-3.893638 1.48149,-3.048 1.48149,-3.048 1.6466,-2.846797 1.64662,-2.846796 2.16162,-3.269178 2.16163,-3.269179 1.96537,-2.520025 1.96536,-2.520026 2.34084,-2.667 2.34085,-2.667 3.40397,-3.302 3.40397,-3.302 2.53473,-2.118429 2.53473,-2.118431 2.921,-2.187672 2.921,-2.187674 3.302,-2.198995 3.302,-2.198992 3.556,-2.091172 3.556,-2.0911719 5.334,-2.6293091 5.334,-2.6293087 3.175,-1.303003 3.175,-1.303002 4.318,-1.65263305 4.318,-1.65263095 5.08,-1.792808 5.08,-1.792809 5.461005,-1.752061 5.461,-1.752059 6.985,-1.9958813 6.985,-1.995882 5.08,-1.282357 5.08,-1.28236 4.44501,-1.019693 4.445,-1.019696 5.588,-1.162451 5.588,-1.162451 5.715,-1.020621 5.715,-1.02062 6.3905,-0.994339 6.39051,-0.994341 7.07149,-0.890999 7.0715,-0.890999 6.223,-0.631107 6.223,-0.631103 4.826,-0.390876 4.826,-0.390873 3.8865,-0.262572 3.88651,-0.262573 7.28949,-0.385353 7.2895,-0.385356 17.145,-0.146282 17.145,-0.146283 9.525,0.294952 9.525,0.294955 5.08,0.246583 5.08,0.246584 6.604,0.385836 6.604,0.385833 6.096,0.512334 6.096,0.512333 4.699,0.50151 4.699,0.501511 4.826,0.640966 4.826,0.640969 4.572,0.761055 4.572,0.761058 4.064,0.767029 4.064,0.767029 3.556,0.906801 3.556,0.9068 2.921,1.080082 2.921,1.080081 2.38352,1.042716 2.38351,1.042719 2.56949,1.43245 2.56948,1.432451 2.28601,1.532448 2.286,1.5324483 1.143,0.905109 1.143,0.905106 2.10787,1.884338 2.10787,1.884337 1.45831,1.806402 1.45832,1.80640195 0.89019,1.27000105 0.89019,1.27 0.9124,1.651 0.91239,1.651 0.77107,1.9049998 0.77109,1.9049999 0.42136,1.905 0.42136,1.905 0.21974,3.683 0.21973,3.683001 0.38779,3.683 0.38778,3.683 0.25974,3.556 0.25974,3.556 v 5.51149 5.511493 l -0.38811,2.997508 -0.38812,2.99751 -0.51628,1.90039 -0.51625,1.90039 -0.99527,2.123864 -0.99528,2.123864 -1.12598,1.563746 -1.12598,1.563746 -1.35588,1.310559 -1.35585,1.310559 -1.99903,1.422702 -1.99906,1.422703 -3.58894,1.765101 -3.58897,1.765102 -7.493,3.076677 -7.493,3.076677 -18.415,7.372787 -18.415,7.372782 -5.334,2.234743 -5.334,2.234743 -4.25755,1.930962 -4.25755,1.93098 -4.12445,2.06434 -4.12446,2.06436 -3.429,1.91653 -3.429,1.91653 -3.17162,2.01305 -3.17165,2.01305 -2.81226,2.11229 -2.81226,2.11229 -2.39809,2.13789 -2.39812,2.13789 -2.05282,2.26535 -2.05283,2.26535 -1.60836,2.032 -1.60837,2.032 -2.27394,3.429 -2.27391,3.429 -2.55179,4.318 -2.55178,4.318 -2.78321,4.69476 -2.78318,4.69479 -2.24431,3.36733 -2.2443,3.36732 -1.97317,2.60592 -1.97315,2.60588 -2.599,2.94935 -2.59898,2.94937 -2.93873,2.80632 -2.93871,2.80632 -2.85074,2.40162 -2.85072,2.40162 -3.175,2.3843 -3.175,2.38427 -3.429,2.31615 -3.429,2.31615 -4.572,2.7412 -4.572,2.74119 -6.096,3.11894 -6.096,3.11897 -5.207,2.26995 -5.207,2.26992 -4.08563,1.54168 -4.08563,1.54168 -3.40737,1.13832 -3.40737,1.13836 -3.95894,1.13626 -3.95895,1.13627 -3.91505,0.90475 -3.91506,0.90478 -3.429,0.62377 -3.429,0.62377 -3.175,0.39972 -3.175,0.39972 -3.048,0.2378 -3.048,0.23779 -3.937,0.11186 -3.937,0.11184 -3.937,-0.19467 z m 16.383,-7.86196 2.54,-0.28016 3.41454,-0.50165 3.41453,-0.50162 3.18947,-0.64501 3.18946,-0.64501 3.556,-0.88669 3.556,-0.88666 3.87797,-1.16965 3.87797,-1.16964 -0.10379,-0.10379 -0.10379,-0.1038 -3.01218,0.91607 -3.01218,0.91608 -4.318,0.86774 -4.318,0.86771 -5.21491,0.88756 -5.2149,0.88752 -3.0401,0.29723 -3.04009,0.29726 -7.112,-0.13945 -7.112,-0.13947 -3.5545,-0.54366 -3.55449,-0.54369 -3.68451,-0.76309 -3.6845,-0.76307 -4.064,-1.01549 -4.064,-1.01546 -3.44447,-0.99208 -3.44447,-0.99207 -2.646905,-0.92134 -2.6469,-0.92133 -1.52863,-0.69583 -1.52863,-0.69584 -4.572,-2.75148 -4.572,-2.75148 -4.95301,-3.09463 -4.953,-3.09464 -2.921,-1.90017 -2.921,-1.9002 -4.445,-3.12047 -4.445,-3.12046 -3.02415,-2.42149 -3.02416,-2.42145 -2.18284,-1.91984 -2.18285,-1.91983 -2.921,-2.64859 -2.921,-2.64858 -2.37776,-2.31486 -2.37777,-2.31483 -1.94624,-2.58554 -1.94623,-2.58554 -1.97016,-3.27124 -1.97015,-3.27124 -1.5045,-5.6909 -1.50449,-5.69089 0.0836,-0.0836 0.0836,-0.0836 1.70627,2.93835 1.70627,2.93833 2.40472,3.72384 2.40472,3.72387 2.13733,2.84559 2.13733,2.84561 1.86004,1.86949 1.86003,1.86946 3.79771,2.6892 3.79771,2.68918 2.667,1.78049 2.667,1.78051 4.064,2.53086 4.064,2.53085 2.921,1.68121 2.921,1.68122 3.87009,1.80439 3.87009,1.80442 8.32191,2.62844 8.32192,2.62844 5.461,1.28428 5.461005,1.2843 4.59467,0.89009 4.59468,0.89007 3.78732,0.53213 3.78733,0.5321 4.191,0.37016 4.191,0.37013 h 4.699 4.699 l 2.794,-0.25378 2.794,-0.25379 3.683,-0.52812 3.683,-0.52812 2.286,-0.47345 2.286,-0.47346 14.351,-4.42252 14.351,-4.42255 3.81,-1.58592 3.81,-1.58593 2.54,-1.19791 2.54,-1.19792 4.445,-3.00697 4.445,-3.00696 2.54,-1.91795 2.54,-1.91796 2.921,-2.31635 2.921,-2.31635 3.556,-3.05529 3.556,-3.05527 3.683,-3.38109 3.683,-3.38107 7.12859,-7.13392 7.12856,-7.13392 3.9054,-4.826 3.9054,-4.82601 3.59888,-4.191 3.59887,-4.191 3.23731,-3.55599 3.23731,-3.556 1.80322,-1.62664 1.80322,-1.62667 2.99768,-2.49583 2.99766,-2.49586 4.88795,-3.648604 4.88795,-3.648634 4.445,-3.033217 4.445,-3.033243 2.62903,-1.716118 2.629,-1.716128 3.213,-1.607114 3.21297,-1.607117 5.842,-2.092429 5.842,-2.092432 8.636,-3.171119 8.63601,-3.171119 6.63356,-2.629959 6.63357,-2.629957 2.25643,-0.636341 2.25644,-0.636341 3.683,-1.262789 3.683,-1.262792 3.429,-1.419324 3.429,-1.419324 4.75224,-2.507915 4.75221,-2.507915 3.24879,-1.941807 3.24876,-1.941805 2.47121,-1.840728 2.47122,-1.840725 1.79713,-1.609004 1.7971,-1.609003 0.17668,0.176225 0.17666,0.176223 0.0881,2.396086 0.0882,2.396089 -0.41024,1.843887 -0.41021,1.843885 -0.94792,1.831729 -0.94793,1.831729 -1.397,1.437155 -1.397,1.437155 -1.651,1.333995 -1.651,1.333995 -1.7967,1.234392 -1.79667,1.234389 -16.03992,7.096255 -16.03995,7.096253 0.0768,0.07675 0.0767,0.07675 13.18789,-5.300706 13.18786,-5.300706 4.572,-1.955599 4.572,-1.955602 1.905,-1.035424 1.905,-1.035423 1.41041,-0.953689 1.41041,-0.953686 1.49299,-1.612052 1.49298,-1.612049 0.94509,-2.032 0.94508,-2.032 0.40655,-1.905 0.40653,-1.905001 0.25138,-2.286 0.25141,-2.286 v -3.81 -3.81 l -0.15898,-1.682875 -0.15898,-1.682874 -1.87246,2.231756 -1.87249,2.231758 -1.84025,1.712102 -1.84023,1.712105 -2.32151,1.855501 -2.32154,1.855503 -3.13946,2.140753 -3.13949,2.14075 -3.67642,2.106927 -3.67642,2.106925 -3.56258,1.706088 -3.56258,1.706085 -4.191,1.771051 -4.191,1.771053 -5.715,2.171101 -5.715,2.171103 -11.20905,3.950139 -11.20907,3.95014 -4.15051,1.549479 -4.15052,1.549479 -3.81744,1.541904 -3.81741,1.541902 -3.429,1.511155 -3.429,1.511153 -4.4968,2.283242 -4.49679,2.283241 -3.88521,2.332843 -3.88521,2.332838 -2.54,1.878178 -2.54,1.878152 -1.778,1.526032 -1.778,1.526032 -2.22981,2.053637 -2.22982,2.05365 -3.39989,3.683 -3.39989,3.683 -2.87929,3.43679 -2.8793,3.4368 -6.12742,7.6122 -6.12739,7.61221 -3.25585,3.81 -3.25585,3.81 -4.96776,4.96778 -4.96773,4.96781 -3.81,3.16687 -3.81,3.1669 -3.937,2.94558 -3.937,2.94559 -4.191,2.78714 -4.191,2.78715 -3.50917,2.0812 -3.50917,2.0812 -3.55173,1.90032 -3.55174,1.90035 -3.73409,1.74087 -3.7341,1.74084 -2.794,1.1923 -2.794,1.19228 -4.445,1.61457 -4.445,1.61458 -4.064,1.18024 -4.064,1.18023 -3.048,0.73109 -3.048,0.73106 -3.51672,0.64887 -3.51673,0.64887 -4.10328,0.53183 -4.10327,0.5318 -6.992,0.13385 -6.992,0.13389 -3.77583,-0.29086 -3.77583,-0.29085 -3.71017,-0.51372 -3.71017,-0.51371 -4.191,-0.75705 -4.191,-0.75702 -5.663885,-1.39797 -5.66388,-1.39796 -5.25812,-1.73482 -5.25812,-1.73482 -4.064,-1.61996 -4.064,-1.61994 -5.334,-2.67449 -5.334,-2.6745 -3.64337,-2.2827 -3.64336,-2.28269 -3.38457,-2.54 -3.38457,-2.54 -2.75107,-2.47285 -2.75107,-2.47281 -1.79773,-1.97219 -1.79773,-1.97215 -1.74151,-2.159 -1.7415,-2.159 -1.87954,-2.85733 -1.87954,-2.85732 -3.88688,-7.55668 -3.8869,-7.55667 -1.16759,-2.15901 -1.16759,-2.159 -0.004,0.39175 -0.004,0.39177 0.61778,3.16423 0.61778,3.16426 0.66341,1.905 0.66342,1.905 1.0206,3.302 1.02059,3.302 1.38169,5.27713 1.38168,5.27712 0.77325,1.70536 0.77326,1.70538 1.18838,1.90752 1.18838,1.90749 1.63399,2.032 1.634,2.032 2.36276,2.55872 2.36277,2.55874 3.68501,3.37482 3.68502,3.37485 3.50061,2.92308 3.50062,2.92306 4.50855,3.39565 4.50856,3.39565 5.14344,3.40368 5.14345,3.40367 3.81,2.2286 3.81,2.22862 4.57861,2.3114 4.57861,2.31138 2.91244,1.2434 2.91243,1.24341 3.23883,1.22235 3.238835,1.22232 3.36712,0.99408 3.36713,0.99408 3.048,0.65273 3.048,0.65273 2.794,0.42751 2.794,0.42748 3.302,0.33175 3.302,0.33175 6.985,-0.096 6.985,-0.096 2.54,-0.28019 z m 31.28433,-7.03372 -0.16933,-0.16931 -0.16934,0.16931 -0.16933,0.16935 h 0.33867 0.33866 z m 0.59267,-0.21165 v -0.127 h -0.127 -0.127 v 0.127 0.127 h 0.127 0.127 z m 0.762,-0.254 v -0.127 h -0.127 -0.127 v 0.127 0.127 h 0.127 0.127 z m -40.386,-23.24344 3.429,-0.2552 3.048,-0.38333 3.048,-0.38334 3.556,-0.65278 3.556,-0.65275 4.318,-1.09345 4.318,-1.09347 4.064,-1.32306 4.064,-1.32306 5.207,-2.06014 5.207,-2.06015 6.223,-3.09941 6.223,-3.09943 3.556,-2.08288 3.556,-2.08287 4.318,-2.85451 4.318,-2.8545 3.58831,-2.68018 3.58831,-2.68021 3.90469,-3.24843 3.90469,-3.24843 4.84043,-4.84051 4.84045,-4.84048 3.21285,-3.76202 3.21287,-3.76204 7.09417,-8.81096 7.09414,-8.81097 1.95923,-2.286 1.9592,-2.286 3.43878,-3.74239 3.43881,-3.742386 3.08442,-2.793619 3.08443,-2.793619 2.40512,-1.924406 2.4051,-1.924418 2.54,-1.728241 2.54,-1.728242 3.76233,-2.200486 3.7623,-2.200486 4.7467,-2.374112 4.74667,-2.374111 3.048,-1.327208 3.048,-1.327206 4.445,-1.78453 4.445,-1.784531 4.318,-1.590975 4.318,-1.590974 9.90601,-3.484106 9.906,-3.484108 4.95955,-1.848833 4.95953,-1.848833 3.54947,-1.453886 3.54945,-1.453883 3.683,-1.643137 3.683,-1.643133 2.82176,-1.49586 2.82179,-1.495859 2.00421,-1.180198 2.00424,-1.180199 2.65976,-1.783047 2.65976,-1.783047 2.41709,-1.924251 2.41706,-1.92425 2.42669,-2.423719 2.42669,-2.423719 1.33216,-1.778 1.33218,-1.778 1.26426,-2.54 1.26428,-2.54 0.42258,-1.749159 0.42258,-1.749158 -0.42001,-3.711842 -0.42004,-3.711842 -1.26871,-2.5686206 -1.26873,-2.5686231 -1.21381,-1.615176 -1.21379,-1.615179 -2.16678,-2.166201 -2.16677,-2.16620105 -1.9844,-1.49256695 -1.9844,-1.492565 -2.19883,-1.388951 -2.19882,-1.388948 -3.048,-1.47173 -3.048,-1.471729 -2.413,-0.8967953 -2.413,-0.896793 -2.64996,-0.78645 -2.64996,-0.78645 -4.46204,-0.894459 -4.46204,-0.894456 -5.26339,-0.871451 -5.26342,-0.871451 -4.89658,-0.639638 -4.89661,-0.639638 -4.69901,-0.504952 -4.699,-0.504952 -4.572,-0.380624 -4.572,-0.380622 -5.842,-0.380647 -5.842,-0.380649 -5.207,-0.259886 -5.207,-0.259887 -7.239,-0.309001 -7.239,-0.309002 -18.288,-0.0042 -18.288,-0.0042 -6.731,0.320796 -6.731,0.320797 -6.223,0.374536 -6.223,0.374536 -6.223,0.51628 -6.223,0.516281 -5.969,0.630527 -5.969,0.630527 -5.969,0.767336 -5.969,0.767334 -5.79812,0.879409 -5.79813,0.879409 -5.63187,1.007425 -5.63188,1.007425 -5.588,1.130595 -5.588,1.130597 -4.064,0.9185763 -4.064,0.918576 -6.096,1.531051 -6.096,1.531051 -7.112,2.034274 -7.112,2.034276 -8.255,2.754129 -8.255005,2.754133 -5.41759,2.046851 -5.41759,2.0468541 -3.47241,1.4273276 -3.47242,1.42733 -5.334,2.628654 -5.334,2.628654 -4.064,2.433038 -4.064,2.433041 -3.302,2.313777 -3.302,2.313778 -2.413,1.917293 -2.413,1.917294 -2.667,2.332771 -2.667,2.33277 -3.31391,3.414166 -3.3139,3.414164 -2.69275,3.360905 -2.69275,3.360906 -2.1436,3.227631 -2.1436,3.227632 -1.98341,3.551656 -1.98341,3.55166 -0.74991,1.655341 -0.7499,1.655343 -1.53411,3.81 -1.53412,3.81 -0.6242,2.286001 -0.6242,2.286 -0.12971,4.064 -0.12971,4.064 0.52299,3.072054 0.52299,3.072054 0.797,2.871445 0.797,2.871444 1.15386,3.073502 1.15385,3.0735 1.47257,3.33337 1.47257,3.33337 1.95485,3.90563 1.95486,3.90563 3.23491,6.096 3.2349,6.096 2.43847,4.826 2.43847,4.826 1.29281,2.159 1.29281,2.159 1.82814,2.41005 1.82814,2.41006 2.286,2.40931 2.286,2.40932 2.032,1.88234 2.032,1.88235 2.286,1.77764 2.286,1.77762 2.921,1.95296 2.921,1.95295 2.921,1.66581 2.921,1.66581 2.286,1.14315 2.286,1.14313 3.81,1.64574 3.81001,1.64572 4.318,1.53454 4.318,1.53451 4.064,1.15855 4.064,1.15852 3.937005,0.9111 3.937,0.91107 5.08,0.86352 5.08,0.86353 3.81,0.39288 3.81,0.39289 1.016,0.0853 1.016,0.0853 4.318,0.0421 4.318,0.0421 3.429,-0.2552 z m -11.43,-6.87494 -3.683,-0.19665 -3.3382,-0.51712 -3.3382,-0.51712 -3.0118,-0.74264 -3.0118,-0.74262 -1.46726,-0.43023 -1.46726,-0.43022 5.02326,-3.4384 5.02326,-3.43843 4.318,-3.23898 4.318,-3.23901 2.19197,-1.9212 2.19197,-1.92121 1.51325,-1.8589 1.51324,-1.8589 1.77426,-2.413 1.77426,-2.413 1.73791,-2.78348 1.73791,-2.78349 1.62634,-3.11581 1.62634,-3.11582 3.47527,-3.15504 3.47528,-3.15503 2.55368,-2.62966 2.55368,-2.62967 0.92174,-1.28077 0.92174,-1.28074 0.51654,-1.31049 0.51654,-1.31049 0.53988,-2.10776 0.53988,-2.10774 0.43669,-2.29769 0.43668,-2.29768 0.92173,-1.38862 0.92172,-1.38864 1.67633,-1.23084 1.67633,-1.23086 1.83142,-1.51937 1.83142,-1.51938 4.06978,-3.781172 4.06978,-3.781171 4.19809,-4.387291 4.1981,-4.387292 3.24723,-3.556 3.24722,-3.556 1.4389,-1.357079 1.4389,-1.357081 4.953,-3.997569 4.953,-3.997569 5.969,-4.633972 5.969,-4.633973 1.09461,-1.314379 1.09462,-1.314379 1.98557,-2.54 1.98559,-2.54 1.55529,-1.206236 1.55532,-1.206234 v 0.09029 0.09029 l -1.53769,3.214555 -1.53769,3.214558 -1.02293,3.108394 -1.02291,3.108391 -0.27737,4.16099 -0.27734,4.160988 0.33197,8.969553 0.33198,8.969553 -0.18074,2.072236 -0.18078,2.072234 -0.75588,2.704237 -0.75587,2.704211 -1.87518,5.714997 -1.87516,5.715 -0.78981,5.334 -0.78979,5.334 -0.38882,2.02608 -0.3888,2.02611 -1.10709,3.05389 -1.10708,3.05392 -1.31917,3.175 -1.31918,3.175 -0.37243,1.651 -0.37244,1.651 0.15408,2.31897 0.15408,2.319 0.23039,1.364 0.2304,1.36403 0.15133,2.06866 0.15133,2.06862 -2.98821,1.94762 -2.9882,1.9476 -5.08,2.51592 -5.08,2.5159 -4.064,1.67817 -4.064,1.67818 -4.445,1.66274 -4.445,1.66273 -8.255,2.74219 -8.255,2.74216 -6.90271,2.0622 -6.90271,2.06217 -3.36547,0.49396 -3.36546,0.49392 -2.68583,0.13871 -2.68582,0.13871 -1.524,0.0821 -1.524,0.082 z m -26.797005,-8.36435 -2.794,-0.45621 -3.07898,-0.78258 -3.07897,-0.78257 -3.52503,-1.11382 -3.52502,-1.11384 -2.54,-1.08049 -2.54001,-1.08049 -1.96616,-0.98681 -1.96616,-0.98679 -1.46284,-0.93333 -1.46284,-0.93334 -1.778,-1.27648 -1.778,-1.27648 -2.159,-1.82903 -2.159,-1.82905 -1.42391,-1.48397 -1.42391,-1.484 -5.77626,-7.44715 -5.77626,-7.44718 0.15047,-0.15047 0.15046,-0.15044 2.20339,-0.32578 2.20339,-0.32578 2.56032,-0.17026 2.56031,-0.17026 5.842,0.29871 5.842,0.2987 2.68664,-0.27373 2.68663,-0.27371 4.67937,-1.26828 4.67937,-1.26827 2.159,-0.43624 2.159,-0.43627 4.826,0.0145 4.826,0.0145 5.576305,0.67831 5.5763,0.67831 2.1707,-0.003 2.1707,-0.003 2.413,-0.3745 2.413,-0.3745 1.27,-0.37018 1.27,-0.37018 5.207,-1.77858 5.207,-1.77856 v -0.33277 -0.33274 l -0.59663,-0.0845 -0.59662,-0.0845 -5.62638,1.91659 -5.62637,1.9166 -2.25577,0.39035 -2.25578,0.39037 h -3.12335 -3.12334 l -1.85988,-0.24178 -1.85988,-0.24178 -1.45768,-0.13173 -1.45768,-0.13172 -2.225325,-0.28425 -2.22532,-0.28425 -3.81,-0.0168 -3.81,-0.0168 -2.032,0.31191 -2.032,0.31194 -5.207,1.38196 -5.20701,1.38199 -1.651,0.28877 -1.651,0.28877 -7.239,-0.19408 -7.239,-0.19408 -1.778,0.0437 -1.778,0.0437 -2.921,0.37773 -2.921,0.37772 -0.508,0.10831 -0.508,0.1083 -2.54,-3.08369 -2.54,-3.08366 -3.76696,-4.59267 -3.76696,-4.59265 -1.41865,-2.286 -1.41865,-2.286 -2.41011,-4.191 -2.41012,-4.191 -1.60232,-3.302 -1.60231,-3.302002 -0.52535,-4.138981 -0.52536,-4.138981 0.13241,-0.214249 0.13241,-0.214223 5.39998,-3.88983 5.39999,-3.889825 2.794,-2.086519 2.794,-2.086521 2.83384,-3.132435 2.83383,-3.132437 1.20884,-1.473932 1.20883,-1.473931 3.87708,-2.892192 3.87708,-2.892191 1.0673,-0.964245 1.06731,-0.964245 1.91313,-2.289632 1.91314,-2.289633 1.29181,-1.35956 1.29181,-1.359561 3.683,-2.467437 3.683,-2.467437 0.28527,-0.16857 0.28526,-0.16857 0.55594,1.524717 0.55594,1.524719 2.31963,3.105848 2.31962,3.105851 0.32522,0.937403 0.32522,0.937402 -0.002,4.650598 -0.002,4.650598 -0.052,2.286 -0.052,2.286 0.7591,1.379784 0.7591,1.379787 1.95919,2.221893 1.95919,2.221895 0.16385,0.652821 0.16385,0.65282 h 0.36143 0.36144 l 0.14642,-0.381569 0.14642,-0.381566 -0.15387,-0.570934 -0.15387,-0.570931 -1.79512,-2.032 -1.79512,-2.032 -0.71337,-1.016 -0.71336,-1.016 -0.32198,-1.44047 -0.32197,-1.440472 0.4094,-2.242528 0.40939,-2.24253 -0.33677,-4.196167 -0.33677,-4.196166 -0.4568,-0.883834 -0.4568,-0.883834 -1.81031,-2.413 -1.8103,-2.413 -0.41373,-0.65469 -0.41373,-0.654688 -0.40299,-1.357007 -0.40299,-1.357008 0.0626,-0.03449 0.0626,-0.03449 1.905,-1.373309 1.905,-1.37331 1.82086,-1.469451 1.82086,-1.469451 1.28586,-1.715051 1.28586,-1.715051 0.79144,-1.60525 0.79143,-1.60525 1.48184,-5.76075 1.48184,-5.760751 0.92217,-3.033291 0.92216,-3.033293 0.75138,-1.948401 0.75138,-1.948404 0.43946,-0.390794 0.43946,-0.390797 3.78686,-1.194161 3.78685,-1.1941606 8.024155,-0.6215228 8.02415,-0.6215253 3.302,0.00787 3.302,0.00787 3.683,0.2641194 3.683,0.2641168 4.191,0.5158715 4.191,0.515874 3.683,0.736219 3.683,0.736219 3.556,1.023767 3.556,1.02377 2.00679,0.775328 2.00678,0.775327 2.51811,1.293462 2.5181,1.293462 1.82511,1.199358 1.82511,1.19936 2.3495,1.82468 2.3495,1.824678 v 1.083071 1.082035 l 0.40081,3.037452 0.40082,3.037448 -0.15248,0.969163 -0.15249,0.969162 -1.411,3.348838 -1.41101,3.348838 -1.78342,5.195758 -1.78341,5.195761 -2.86499,5.72624 -2.865,5.726242 -1.95202,4.27685 -1.95203,4.276849 -0.49189,1.923281 -0.49189,1.923283 -0.003,0.530867 -0.003,0.53087 -0.91065,1.143001 -0.91064,1.143 -0.96421,1.651 -0.9642,1.651 -0.43572,2.54 -0.43571,2.54 -0.0365,3.175 -0.0365,3.175 2.88696,9.24443 2.88696,9.24446 -0.15316,1.1174 -0.15315,1.11739 -1.3008,3.86215 -1.3008,3.86217 -0.34566,0.67071 -0.34567,0.67074 -7.05203,7.29965 -7.05202,7.29969 -1.51921,2.0626 -1.5192,2.06261 -3.98756,5.35107 -3.98756,5.35107 -3.27007,2.95483 -3.27007,2.95483 -2.40348,1.95212 -2.40348,1.95214 -1.778,1.19553 -1.778,1.19553 -2.667,1.53113 -2.667,1.53114 -1.32506,0.66782 -1.32506,0.66779 -0.57994,-0.0268 -0.57994,-0.0268 -2.794005,-0.45619 z m 2.606725,-53.48102 2.67192,-0.39672 2.01803,-0.7365 2.01804,-0.7365 2.84478,-1.49418 2.84478,-1.49418 2.6384,-1.62708 2.6384,-1.62709 2.61442,-2.50048 2.61443,-2.50048 1.44074,-1.881023 1.44076,-1.881022 h 0.095 0.095 l -0.59202,0.9525 -0.59201,0.9525 -0.85028,1.501525 -0.85028,1.50149 0.28556,-0.17648 0.28556,-0.17648 1.50727,-2.25338 1.50726,-2.25339 0.50849,-1.359052 0.50849,-1.359053 0.29507,-1.94663 0.29508,-1.946631 -0.49963,-2.623947 -0.49964,-2.623973 -0.539,-1.434038 -0.53899,-1.434038 -0.96583,-1.486962 -0.96582,-1.486962 -1.81726,-1.707589 -1.81726,-1.707588 -2.42796,-1.181131 -2.42795,-1.181131 -1.94319,0.03762 -1.94318,0.03762 -0.43095,0.390004 -0.43095,0.390005 -1.70578,0.241569 -1.70577,0.241567 -2.82067,0.636727 -2.82067,0.63673 -2.67553,0.914113 -2.675535,0.914115 -2.667,1.340389 -2.667,1.340388 -2.286,1.505669 -2.286,1.505671 -1.524,1.220928 -1.524,1.220927 -1.61786,1.554686 -1.61786,1.554708 -1.21952,1.843279 -1.21952,1.843252 -0.58831,1.712748 -0.58831,1.712722 0.0137,2.54 0.0137,2.539998 0.46692,1.651 0.46692,1.651 0.71385,1.60348 0.71385,1.6035 0.78074,0.98575 0.78073,0.98577 1.22338,0.89805 1.22338,0.89804 1.60993,0.79875 1.60993,0.79878 2.17314,0.45857 2.17313,0.45858 3.2694,0.0178 3.2694,0.0178 2.671925,-0.39675 z m -3.845845,-11.53963 -1.23912,-0.22283 -1.16909,-0.72281 -1.16909,-0.72278 -0.55497,-0.82352 -0.55496,-0.823521 -0.16907,-1.00071 -0.16907,-1.000734 0.39636,-1.342848 0.39637,-1.342872 0.96535,-1.265784 0.96536,-1.265809 1.34942,-0.942746 1.34942,-0.942747 1.9451,-0.812851 1.945115,-0.812876 1.27,-0.341071 1.27,-0.341097 2.30913,-0.003 2.30913,-0.003 1.16497,0.350596 1.16497,0.350622 0.73012,0.519887 0.73013,0.519887 0.68527,1.399515 0.68528,1.399515 v 1.311097 1.311097 l -0.43006,0.927405 -0.43006,0.92738 -1.91944,1.920189 -1.91944,1.920216 -1.25378,0.5798 -1.25377,0.57984 -1.66723,0.34246 -1.66722,0.34247 -2.413,0.12723 -2.413005,0.12726 -1.23912,-0.22284 z m 29.814125,-5.716625 v -0.127 h 0.127 0.127 v 0.127 0.127 h -0.127 -0.127 z m 82.0418,50.618435 -2.1e-4,-0.83444 -0.36834,-1.778 -0.36833,-1.778 -0.2345,-1.90931 -0.23451,-1.90932 0.24565,-1.62304 0.24565,-1.62301 1.84984,-4.59564 1.84983,-4.59568 0.90112,-2.794 0.90111,-2.794 0.37938,-2.667 0.37937,-2.66699 0.16421,-1.44338 0.16421,-1.44336 0.88829,0.98323 0.88832,0.98326 2.46105,1.26452 2.46106,1.26453 0.55057,0.59261 0.55057,0.59258 0.68496,1.71956 0.68497,1.71958 1.02867,0.88049 1.02867,0.88049 1.96396,0.95044 1.96398,0.95044 -0.96322,1.91049 -0.96322,1.91051 -1.52339,2.31544 -1.52342,2.31542 -2.37655,2.60809 -2.37655,2.60807 -2.64353,2.28296 -2.64353,2.28297 -2.52174,1.87673 -2.52174,1.87676 -0.48623,0.26022 -0.48623,0.26023 z m 19.78535,-23.92593 -1.67782,-0.82972 -0.91051,-0.69449 -0.91052,-0.69448 -0.71071,-1.81151 -0.71072,-1.81152 -0.77778,-0.77338 -0.77774,-0.7734 -2.40018,-1.21745 -2.40017,-1.21745 -1.18107,-1.36091 -1.18108,-1.3609 0.25065,-1.23165 0.25065,-1.23164 2.14424,-6.69242 2.14422,-6.692395 0.66301,-2.451608 0.66302,-2.451582 -0.0903,-5.969001 -0.0903,-5.969 -0.009,-8.382 -0.009,-8.382001 0.56032,-2.099691 0.56035,-2.099691 1.29073,-2.958107 1.2907,-2.958104 1.71308,-3.240205 1.71305,-3.240202 3.73382,-2.919402 3.73383,-2.919403 1.94658,-0.18241 1.94658,-0.18241 2.15958,0.30211 2.15959,0.30211 2.94688,0.969252 2.94691,0.969251 1.778,0.970184 1.778,0.970186 2.14465,1.373764 2.14465,1.373766 1.91935,1.461151 1.91935,1.46115 1.56134,1.669189 1.56136,1.669189 1.16845,1.637431 1.16845,1.637434 0.67704,1.478837 0.67701,1.478836 0.1144,1.791891 0.11438,1.791894 -0.68451,2.667 -0.6845,2.667 -1.25072,2.540001 -1.25075,2.54 -1.71298,2.413 -1.71297,2.413 -2.03279,2.032 -2.03279,2.032 -3.68221,2.65604 -3.68221,2.656038 -1.5014,1.66195 -1.50139,1.661973 -2.21839,2.54 -2.21836,2.54 -1.44627,1.851761 -1.44625,1.851737 -1.34557,2.847267 -1.34554,2.84724 -1.70368,4.445 -1.70365,4.445 -0.37851,1.651 -0.37851,1.65099 -0.8776,3.53266 -0.87757,3.53266 -0.18067,0.32245 -0.18064,0.32248 -1.67785,-0.82974 z m 12.30277,-12.23515 -0.15412,-0.40165 0.14671,-1.82085 0.14671,-1.82085 0.52547,-2.01727 0.52548,-2.01727 0.89182,-1.79273 0.89182,-1.79273 1.45559,-2.022836 1.4556,-2.02283 2.54,-2.021383 2.54,-2.021409 3.67246,-3.067761 3.67249,-3.067787 2.21754,-2.10964 2.21755,-2.10964 1.76418,-2.08136 1.76418,-2.08136 1.51732,-2.413 1.51732,-2.413 0.6747,-1.332383 0.67468,-1.332382 1.02215,-5.144618 1.02214,-5.144618 1.11948,-4.351736 1.11951,-4.351739 0.86398,-2.17611 0.86398,-2.176109 0.86416,-1.456805 0.86418,-1.456807 3.46571,-3.572347 3.4657,-3.572348 3.69075,-3.405594 3.69074,-3.405591 1.32639,-3.009301 1.32639,-3.009298 1.7686,-3.110108 1.76863,-3.110109 1.68646,-2.413 1.68648,-2.413 1.16192,-2.413198 1.1619,-2.4131956 1.90663,-2.2858041 1.90662,-2.285802 3.36522,-3.68300105 3.3652,-3.68299995 1.05933,-1.515206 1.05933,-1.515209 1.397,-2.671852 1.397,-2.6718513 1.016,-0.217064 1.016,-0.217066 4.699,0.154981 4.69901,0.154983 4.318,0.259581 4.318,0.259582 3.175,0.379029 3.175,0.379029 2.59628,0.402776 2.59629,0.402773 -4.67614,9.1767593 -4.67617,9.1767558 -1.13926,3.5559999 -1.13929,3.556 -1.28832,4.004087 -1.28834,4.004087 -1.05148,2.091913 -1.05151,2.091914 -2.35095,3.81 -2.35097,3.81 -4.10787,6.35 -4.10789,6.350001 -1.5209,3.09801 -1.52088,3.09801 -0.31597,1.549024 -0.31598,1.549024 -3.09494,1.244478 -3.09494,1.244476 -3.3704,1.648574 -3.37038,1.648572 -3.683,1.997093 -3.683,1.997095 -4.445,2.823978 -4.445,2.823979 -5.461,3.746468 -5.461,3.746469 -8.001,5.707414 -8.001,5.7074 -3.66326,3.330982 -3.66327,3.330956 -3.87814,3.867985 -3.87815,3.86802 -1.99042,2.48198 -1.99042,2.48202 -1.22837,0.8255 -1.22837,0.8255 h -0.48728 -0.48727 z m -80.98624,-14.53325 -1.27331,-0.440284 -1.1753,-0.688772 -1.1753,-0.688772 -1.57273,-1.548511 -1.57273,-1.548485 -0.3805,-0.910667 -0.3805,-0.910666 0.008,-1.419987 0.008,-1.419962 0.99142,-3.937414 0.99142,-3.937417 0.90727,-1.963646 0.90726,-1.963643 1.32994,-1.406223 1.32995,-1.40622 1.80013,-1.359629 1.80013,-1.359632 3.937,-2.23233 3.937,-2.232327 2.95539,-1.863997 2.95538,-1.863997 2.18861,-2.299856 2.18861,-2.299853 3.93853,-4.916899 3.93854,-4.916897 0.86678,-1.288037 0.86679,-1.288034 0.76608,-1.986511 0.76608,-1.986508 0.28817,-2.165485 0.28817,-2.165482 -0.28471,-2.079387 -0.2847,-2.079384 -0.34309,-0.972413 -0.34309,-0.972411 -3.99806,-5.437185 -3.99808,-5.437185 -0.23935,-0.305522 -0.23935,-0.305521 2.37066,0.643181 2.37066,0.643182 6.604,1.865345 6.604,1.865346 5.39852,1.675249 5.39851,1.675249 2.95547,1.142259 2.95544,1.142261 1.55204,0.817031 1.55202,0.817032 1.42817,1.412293 1.42814,1.412291 0.2718,1.267288 0.27178,1.267284 -0.25341,1.127814 -0.25339,1.127813 -0.7631,1.59889 -0.76306,1.598889 -1.48971,1.964172 -1.48969,1.964175 -1.73378,1.686946 -1.73375,1.686948 -11.303,9.940204 -11.303,9.940205 -1.98997,2.342847 -1.98997,2.342851 -4.71673,6.096 -4.71672,6.096 -1.29431,1.354859 -1.2943,1.354864 -3.556,2.993187 -3.556,2.993213 -1.27,0.804545 -1.27,0.804545 -1.61426,0.498906 -1.61425,0.498882 -1.30675,-0.0084 -1.30674,-0.0084 -1.27332,-0.440309 z M 22.467445,84.791992 v -2.891439 l 0.51459,-3.903061 0.51459,-3.903058 0.89178,-3.175 0.89177,-3.175001 0.5413,-1.397 0.54129,-1.397 0.94041,-1.905 0.9404,-1.905 0.67955,-2.91178 0.67955,-2.91178 0.78331,-1.27922 0.78333,-1.27922 1.58896,-2.032 1.58897,-2.032 3.2676,-3.181198 3.2676,-3.181195 2.54,-2.281309 2.54,-2.281309 2.921,-2.55574 2.921,-2.555743 4.35619,-3.676239 4.35618,-3.676241 3.51782,-1.949272 3.51781,-1.949273 3.175,-1.49749 3.175,-1.49749 3.175,-1.282588 3.17501,-1.282586 4.88756,-1.663476 4.88756,-1.663479 -0.88782,1.762976 -0.88782,1.762973 -1.12665,3.878339 -1.12665,3.878339 -1.31418,5.08 -1.31418,5.08 -0.70778,1.397 -0.70777,1.397 -1.27848,1.749019 -1.27847,1.749018 -1.47766,1.188411 -1.47767,1.188412 -3.048,2.162635 -3.048,2.162635 -4.02293,2.737658 -4.02293,2.737655 -2.58107,3.084279 -2.58107,3.084279 -1.143,1.145705 -1.143,1.145705 -3.937,2.877152 -3.937,2.877153 -2.87727,3.343143 -2.87727,3.343143 -1.69473,1.732623 -1.69473,1.73262 -7.54745,5.44288 -7.54745,5.442877 h -0.13605 -0.13605 z M 154.29346,74.476742 v -0.235956 l 0.59719,-1.851175 0.59718,-1.851177 1.87143,-4.064001 1.87142,-4.064 2.77031,-5.588 2.77031,-5.588 1.59419,-4.699 1.5942,-4.699001 1.57937,-3.556 1.57938,-3.556 0.11517,-2.032 0.11516,-2.032 -0.35814,-2.868506 -0.35813,-2.868506 0.96198,0.939348 0.96198,0.939348 1.38725,1.929158 1.38726,1.929158 1.01576,1.905 1.01576,1.905 0.5643,2.032 0.56431,2.032 0.19965,1.778 0.19964,1.778 -0.2432,2.159 -0.24319,2.159001 -0.39255,1.524 -0.39256,1.524 -0.84155,2.032 -0.84154,2.032 -0.38411,1.651 -0.38409,1.651 -0.55598,1.524 -0.55597,1.524 -2.1976,2.126481 -2.19759,2.126483 -3.302,2.470376 -3.302,2.470376 -1.905,1.268702 -1.905,1.268705 -2.4765,1.555569 -2.4765,1.555573 z m 167.17077,-18.987809 0.25181,-0.9525 1.46901,-3.048 1.46903,-3.048 5.82237,-9.144001 5.82234,-9.144 1.16947,-2.032 1.16944,-2.032 0.69908,-1.651 0.69906,-1.651 0.86304,-2.54 0.86304,-2.540001 1.13968,-3.738014 1.13967,-3.738011 0.84178,-1.9959651 0.84181,-1.9959656 4.134,-7.982021 4.134,-7.982024 0.10262,-0.109159 0.10264,-0.109157 1.96517,0.460863 1.96518,0.460863 2.921,1.000049 2.921,1.000051 2.13865,1.132449 2.13866,1.132451 3.0325,2.214794 3.03251,2.21479595 2.19484,1.86427705 2.19484,1.864276 1.85648,1.818724 1.85646,1.8187238 1.36383,1.778 1.36383,1.7779999 0.9397,1.857134 0.93967,1.857131 0.33627,1.764767 0.33625,1.764769 -0.14925,1.3311 -0.14928,1.3311 -0.83467,1.905 -0.83467,1.905 -0.8989,2.921 -0.89891,2.921 -1.28511,2.082762 -1.28512,2.082762 -1.07429,0.869338 -1.07429,0.869338 -2.032,1.256708 -2.032,1.256711 -1.905,1.040485 -1.905,1.040483 -2.286,0.90482 -2.286,0.904816 -8.509,2.562004 -8.509,2.562007 -6.604,2.031482 -6.604,2.031482 -7.52752,2.396901 -7.5275,2.396902 h -0.13553 -0.13551 z m -52.9935,-4.445 -0.10678,-0.3175 -0.65446,-2.794945 -0.65443,-2.794948 -0.83086,-1.911261 -0.83086,-1.911264 -0.98968,-1.491038 -0.98971,-1.491041 -3.18138,-2.781333 -3.1814,-2.781334 -1.78537,-0.899914 -1.78534,-0.899914 -1.778,-0.609694 -1.778,-0.609692 -4.318,-0.607126 -4.318,-0.607129 -2.54,-0.431942 -2.54,-0.431942 -4.445,-1.640296 -4.445,-1.640297 -4.445,-1.514561 -4.445,-1.514564 -5.08,-1.526263 -5.08,-1.526264 -5.53427,-1.398163 -5.53428,-1.398163 -0.94272,-0.388598 -0.94273,-0.388597 -5.588,-2.55127 -5.588,-2.5512699 -0.0703,-0.055552 -0.0703,-0.05555 5.65829,-3.5714388 5.6583,-3.57144 1.524,-0.667101 1.524,-0.667103 3.429,-1.82031105 3.429,-1.82031195 4.572,-4.484492 4.572,-4.4844923 1.397,-0.887453 1.397,-0.887456 1.27,-0.636702 1.27,-0.636702 7.747,-0.179959 7.747,-0.179959 2.82407,-0.478051 2.8241,-0.47805 3.90691,-0.505029 3.90692,-0.505028 4.445,-0.300441 4.445,-0.300442 4.191,0.167259 4.191,0.167262 6.604,0.377246 6.604,0.377246 6.985,0.513034 6.985,0.513034 4.953,0.505234 4.953,0.505234 3.556,0.513936 3.556,0.513939 2.286,0.527235 2.286,0.527236 0.31077,0.249019 0.3108,0.249016 0.15293,0.815175 0.15291,0.815178 -0.51712,1.4712973 -0.51712,1.471298 -1.20896,1.942503 -1.20897,1.942503 -1.63822,2.159 -1.63822,2.15899995 -4.45049,5.46100105 -4.45049,5.4609997 -2.2737,3.242595 -2.27373,3.242592 -1.49822,1.784381 -1.49825,1.78438 -1.51803,3.355028 -1.51806,3.355025 -1.48846,1.397 -1.48847,1.397 -2.76146,1.629997 -2.76144,1.629994 -1.524,1.008065 -1.524,1.008063 -0.95394,0.907399 -0.95395,0.907403 -1.04953,2.677538 -1.04955,2.677541 -0.71646,2.111965 -0.71649,2.111964 -0.52826,0.854774 -0.5283,0.854773 -0.88808,0.779762 -0.88812,0.779763 h -0.50713 -0.50714 z m -88.26927,-42.3956956 -1.651,-0.4825873 -3.81,-0.9822765 -3.81,-0.9822763 -3.63668,-0.659506 -3.63668,-0.659506 -3.85632,-0.505242 -3.85632,-0.505239 -9.398,-0.644682 -9.398,-0.644683 -3.92516,-0.384731 -3.92516,-0.384731 -0.1028,-0.102794 -0.10279,-0.102794 0.97995,-0.416999 0.97996,-0.41700205 2.159,-0.709577 2.159,-0.709577 3.429,-0.79416695 3.429,-0.794166 25.527,-4.818398 25.527,-4.8183963 6.731,-0.879676 6.731,-0.879675 4.2623,-0.415628 4.26232,-0.415628 0.26563,0.08855 0.26564,0.08854 -1.22596,0.865846 -1.22593,0.865845 -4.445,4.3384523 -4.445,4.338453 -2.921,1.552483 -2.921,1.55248095 -1.98543,0.911533 -1.98543,0.91153505 -3.60257,2.257323 -3.60257,2.257321 -2.54,1.6386712 -2.54,1.6386683 -0.254,0.143411 -0.254,0.1434109 z M 9.7674452,71.046434 v -0.127 h -0.127 -0.127 v 0.127 0.127 h 0.127 0.127 z"
       id="path3972" /></g></svg>
