<?xml version="1.0" encoding="UTF-8" standalone="no"?>
<!-- Created with Inkscape (http://www.inkscape.org/) -->

<svg
   width="82.5131mm"
   height="82.411339mm"
   viewBox="0 0 82.5131 82.411339"
   version="1.1"
   id="svg7919"
   inkscape:version="1.2.2 (732a01da63, 2022-12-09)"
   sodipodi:docname="Asset - Baton.svg"
   xmlns:inkscape="http://www.inkscape.org/namespaces/inkscape"
   xmlns:sodipodi="http://sodipodi.sourceforge.net/DTD/sodipodi-0.dtd"
   xmlns="http://www.w3.org/2000/svg"
   xmlns:svg="http://www.w3.org/2000/svg">
  <sodipodi:namedview
     id="namedview7921"
     pagecolor="#505050"
     bordercolor="#eeeeee"
     borderopacity="1"
     inkscape:pageshadow="0"
     inkscape:pageopacity="0"
     inkscape:pagecheckerboard="0"
     inkscape:document-units="mm"
     showgrid="false"
     fit-margin-top="0"
     fit-margin-left="0"
     fit-margin-right="0"
     fit-margin-bottom="0"
     inkscape:zoom="3.7946874"
     inkscape:cx="213.45632"
     inkscape:cy="132.81726"
     inkscape:window-width="2560"
     inkscape:window-height="1377"
     inkscape:window-x="1072"
     inkscape:window-y="333"
     inkscape:window-maximized="1"
     inkscape:current-layer="layer1"
     inkscape:showpageshadow="0"
     inkscape:deskcolor="#505050" />
  <defs
     id="defs7916" />
  <g
     inkscape:label="Layer 1"
     inkscape:groupmode="layer"
     id="layer1"
     transform="translate(-52.713861,-125.38699)">
    <path
       style="fill:#000000;stroke-width:0.264583"
       id="path8036"
       d="" />
    <path
       style="fill:#000000;stroke-width:0.264583"
       id="path7998"
       d="" />
    <path
       id="path8808"
       style="fill:#000000;stroke-width:0.264583"
       d="m 109.15899,127.67677 c -1.1153,0.0224 -2.22619,0.23556 -3.40082,0.63304 -2.76329,0.93506 -6.14524,5.39725 -7.043499,9.29349 -0.38083,1.65187 -0.60349,1.75262 -3.546037,1.60404 -1.900398,-0.096 -2.001076,-0.072 -2.147156,0.51004 -0.29929,1.19245 0.0534,3.74412 0.621668,4.4974 0.729109,0.96648 1.271338,0.8936 6.750494,-0.90744 4.93049,-1.62071 4.99785,-1.67728 4.32532,-3.65817 -0.53098,-1.56409 -0.512,-2.40107 0.0858,-3.71709 0.59724,-1.31481 1.84664,-2.40097 3.17241,-2.75797 1.22219,-0.3291 3.55579,0.20817 5.27048,1.21285 4.61925,2.7065 5.20467,6.2259 1.99265,11.98066 -1.21395,2.17496 -3.0574,3.96703 -6.01462,5.84719 -6.03862,3.83927 -7.31844,4.75873 -9.380826,6.73654 -2.371897,2.27461 -3.191858,3.374 -6.274035,8.41447 l -1.967322,3.21686 c -16.398999,26.82317 0,0 -16.398999,26.82317 4.5e-4,0.10199 0.923182,0.68998 2.050521,1.3069 1.127329,0.61693 2.217705,1.09313 2.423624,1.05833 6.728325,-10.56689 13.581958,-21.90385 19.009173,-30.32473 3.778674,-5.91047 6.190254,-8.31956 12.763564,-12.75065 1.81902,-1.2262 4.03522,-2.95572 4.92476,-3.84317 3.03742,-3.03023 5.29248,-7.83525 5.57693,-11.88248 0.38267,-5.44493 -1.9372,-9.42626 -6.86729,-11.78636 -2.19706,-1.05176 -4.06792,-1.54419 -5.92677,-1.50689 z"
       sodipodi:nodetypes="ssscssccsscssccccsccscssss" />
  </g>
</svg>
