<?xml version="1.0" encoding="UTF-8" standalone="no"?>
<!-- Created with Inkscape (http://www.inkscape.org/) -->

<svg
   width="91.894684mm"
   height="122.27346mm"
   viewBox="0 0 91.894682 122.27346"
   version="1.1"
   id="svg1021"
   xml:space="preserve"
   inkscape:version="1.2.2 (732a01da63, 2022-12-09)"
   sodipodi:docname="Asset - Chef Hat.svg"
   xmlns:inkscape="http://www.inkscape.org/namespaces/inkscape"
   xmlns:sodipodi="http://sodipodi.sourceforge.net/DTD/sodipodi-0.dtd"
   xmlns="http://www.w3.org/2000/svg"
   xmlns:svg="http://www.w3.org/2000/svg"><sodipodi:namedview
     id="namedview1023"
     pagecolor="#505050"
     bordercolor="#eeeeee"
     borderopacity="1"
     inkscape:showpageshadow="0"
     inkscape:pageopacity="0"
     inkscape:pagecheckerboard="0"
     inkscape:deskcolor="#505050"
     inkscape:document-units="mm"
     showgrid="false"
     inkscape:zoom="2.5877449"
     inkscape:cx="112.2599"
     inkscape:cy="183.5575"
     inkscape:window-width="2560"
     inkscape:window-height="1377"
     inkscape:window-x="1072"
     inkscape:window-y="333"
     inkscape:window-maximized="1"
     inkscape:current-layer="layer1" /><defs
     id="defs1018" /><g
     inkscape:label="Layer 1"
     inkscape:groupmode="layer"
     id="layer1"
     transform="translate(-182.19485,150.95446)"><path
       style="fill:#000000;stroke-width:0.254"
       d="m 222.02976,-28.83103 c -5.97602,-0.565958 -11.70677,-2.155213 -16.891,-4.684225 -3.74997,-1.829341 -6.61296,-3.649109 -8.566,-5.444691 l -1.34,-1.231971 -0.127,-16.982217 -0.127,-16.982216 -2.20795,-7.273686 c -5.33489,-17.574789 -9.65374,-34.882344 -10.41769,-41.748314 -0.23589,-2.12009 -0.21673,-2.85994 0.11587,-4.4753 0.93969,-4.56381 2.95097,-6.96144 8.06756,-9.61729 2.9115,-1.51125 3.3914,-1.86782 5.83921,-4.33841 4.31035,-4.35048 6.54321,-5.55503 10.668,-5.75503 1.54182,-0.0748 3.37588,0.0325 5.08,0.29712 1.46685,0.22776 3.58441,0.5358 4.7057,0.68454 l 2.03869,0.27042 2.91431,-1.32435 c 7.18851,-3.2667 9.91391,-3.93971 13.36216,-3.29967 2.20112,0.40855 5.53838,1.57135 7.84014,2.73172 l 1.778,0.89634 3.683,-0.43636 c 2.02565,-0.24 4.83337,-0.45403 6.23938,-0.47562 2.41142,-0.037 2.65173,0.008 4.23794,0.78859 2.00192,0.98554 3.56316,2.61745 5.17112,5.40516 l 1.12011,1.94196 1.60077,0.12849 c 3.03058,0.24326 5.43168,1.93651 6.72511,4.74248 0.60431,1.31102 0.62515,1.51578 0.46294,4.54988 -0.38596,7.21968 -3.61365,28.62314 -8.2757,54.877882 l -1.27967,7.206551 v 14.554462 14.554459 l -0.63447,0.754029 c -1.27291,1.512761 -11.22671,5.342128 -18.92353,7.280151 -7.8537,1.977522 -17.10141,2.950482 -22.86,2.405116 z m 14.28545,-5.312672 c 6.42591,-0.992802 13.12996,-2.856791 19.94105,-5.544398 l 3.6195,-1.42823 v -12.727409 c 0,-14.162021 -0.0247,-14.406854 -1.64769,-16.302906 -1.60095,-1.870342 -4.2844,-3.192948 -9.74042,-4.800796 -6.8239,-2.010951 -13.64986,-2.953819 -21.37789,-2.952917 -6.99928,7.62e-4 -12.81815,0.661108 -18.39213,2.087034 -1.10502,0.282687 -2.07657,0.510626 -2.159,0.506534 -0.43219,-0.02146 4.04382,-1.831987 5.98302,-2.420117 3.15149,-0.955794 3.61005,-1.236357 4.19977,-2.569509 0.45697,-1.033054 0.545,-2.156895 0.85904,-10.967466 0.19244,-5.399057 0.11172,-8.647252 0.0651,-12.167468 -0.009,-0.69069 -0.23197,-1.98438 0.4578,-2.02104 0.58666,-0.0312 0.45245,1.09222 0.56939,1.66795 0.50121,2.46754 0.41198,4.001355 0.54206,7.534319 0.2415,6.559062 1.07311,14.350083 1.69858,15.913293 0.4086,1.021192 1.34197,1.480528 3.00135,1.477046 1.85203,-0.0039 4.67905,-1.119345 5.32138,-2.099661 0.74818,-1.141859 0.90097,-3.350659 1.1459,-16.564907 0.17583,-9.48611 0.19245,-9.69435 0.32601,-15.18968 0.0137,-0.56302 0.0513,-1.59033 0.61327,-1.57432 0.38511,0.011 0.34775,0.79576 0.36327,1.21968 0.2421,6.61448 0.48223,11.65088 0.48742,21.89432 0.003,6.0071 0.0918,11.057725 0.19731,11.22361 0.10548,0.165885 0.51122,0.42306 0.90164,0.5715 1.03668,0.394142 4.60073,0.335234 5.62559,-0.09298 0.73841,-0.308526 0.92485,-0.565305 1.24484,-1.7145 0.207,-0.743395 0.44852,-1.923128 0.53672,-2.621628 0.0882,-0.6985 1.58031,-8.299449 3.31579,-16.891002 1.6233,-8.0362 1.56961,-8.09539 2.18678,-12.17084 0.10251,-0.67698 0.11234,-1.96605 0.7912,-1.89031 0.75895,0.0847 0.49369,1.4988 0.39702,2.25632 -0.42034,3.29383 -0.90813,5.5189 -2.13803,12.18583 -0.62112,3.366902 -0.70515,4.445111 -0.72248,9.271002 -0.0179,4.972195 0.0325,5.640807 0.56216,7.469817 0.88008,3.038778 1.56826,4.47735 2.26938,4.743915 1.06464,0.404775 2.5588,0.28777 2.71022,-0.212232 0.33236,-1.097516 3.16296,-15.159042 4.97783,-24.728432 0.82728,-4.36207 0.98671,-5.17778 1.5776,-8.0254 0.0389,-0.18731 0.13593,-0.76586 0.41637,-0.73639 0.29753,0.0313 0.28313,0.5356 0.2697,0.85601 -0.1496,3.56925 -0.43479,4.7658 -0.73788,10.98071 -0.57227,11.734756 -0.61601,14.713838 -0.23609,16.081994 0.34758,1.251697 1.06317,1.952008 1.9946,1.952008 1.23851,0 2.21663,-1.100635 3.69756,-4.160698 2.3105,-4.774224 2.89876,-7.131144 3.81131,-15.270304 0.21928,-1.9558 0.95487,-7.49935 1.63465,-12.319 1.91129,-13.55125 2.05262,-14.71641 2.05228,-16.92025 -5e-4,-2.69181 -0.36356,-3.18979 -2.87448,-3.94173 -2.83967,-0.85039 -3.55656,-1.31876 -6.37604,-4.16571 -1.61187,-1.62756 -3.06222,-2.85338 -3.73987,-3.16087 -2.29833,-1.0429 -4.63012,-0.42659 -7.64698,2.02117 -3.12312,2.53398 -4.33952,2.30467 -6.98798,-1.31734 -1.75912,-2.40575 -2.77629,-3.17759 -5.06895,-3.84634 -3.49846,-1.02048 -6.12872,-0.76595 -9.84943,0.95312 -2.66553,1.23155 -4.29858,2.83489 -5.48235,5.38258 -1.05101,2.26197 -2.14989,3.40537 -3.27277,3.40537 -0.61046,0 -0.86156,-0.24774 -1.73775,-1.7145 -1.3101,-2.19311 -2.58477,-3.41327 -4.49471,-4.30249 -1.36218,-0.63419 -1.80718,-0.70977 -4.191,-0.71177 -2.43745,-0.002 -2.79817,0.0619 -4.191,0.7435 -1.81239,0.88685 -4.04391,3.0557 -5.01757,4.87666 -0.3836,0.71741 -0.96336,2.54621 -1.28835,4.064 -0.39823,1.85984 -0.71083,2.78278 -0.95876,2.8307 -0.20233,0.0391 -0.9693,-0.44227 -1.7044,-1.06973 -2.7542,-2.35095 -5.12815,-1.64129 -6.82012,2.03878 -1.07987,2.34874 -1.22124,3.76831 -0.7237,7.26735 1.02208,7.18788 5.9486,26.3126 11.4468,44.436384 l 1.1291,3.721883 v 15.137617 c 0,8.325691 0.0716,15.137618 0.15901,15.137618 0.0874,0 1.16072,-0.400776 2.38503,-0.890615 6.90302,-2.761852 16.96903,-4.193121 25.77875,-3.665441 4.85349,0.29071 13.7314,1.29957 18.89899,2.147623 3.95046,0.64831 8.48477,1.650548 8.3006,1.834716 -0.0576,0.05757 -1.51513,-0.127755 -3.23903,-0.411844 -10.13634,-1.670405 -19.99034,-1.917214 -25.31445,-0.63404 -3.73929,0.901215 -7.26282,3.216771 -8.05624,5.294326 -1.0041,2.62921 0.57669,4.548121 4.96334,6.024958 1.19242,0.401447 1.97353,0.453843 5.334,0.35778 2.16535,-0.0619 5.5077,-0.355217 7.42745,-0.651815 z m -41.81583,-66.389968 c -3.74554,-9.00379 -6.26364,-18.69947 -5.92025,-22.79539 0.29366,-3.50272 1.50938,-4.60773 3.32018,-3.01783 1.24276,1.09116 1.44481,1.99899 1.02274,4.59531 -0.4619,2.84137 -0.44613,7.26082 0.0358,10.03346 0.21566,1.24067 1.01808,5.04427 1.78318,8.45243 0.7651,3.408157 1.36018,6.225914 1.32241,6.261677 -0.0378,0.03576 -0.7416,-1.55258 -1.56406,-3.529657 z"
       id="path1547"
       sodipodi:nodetypes="ssscccssccccccccsscsccscsscscccssssscscscssssssaassssssssccssssssassccssssassssssccssssssssscsccssccscscssssssssssssscssccscc" /></g></svg>
