<?xml version="1.0" encoding="UTF-8" standalone="no"?>
<!-- Created with Inkscape (http://www.inkscape.org/) -->

<svg
   width="196.36415mm"
   height="196.54558mm"
   viewBox="0 0 196.36415 196.54558"
   version="1.1"
   id="svg5"
   inkscape:version="1.1 (c68e22c387, 2021-05-23)"
   sodipodi:docname="Logo Farmers.svg"
   xmlns:inkscape="http://www.inkscape.org/namespaces/inkscape"
   xmlns:sodipodi="http://sodipodi.sourceforge.net/DTD/sodipodi-0.dtd"
   xmlns="http://www.w3.org/2000/svg"
   xmlns:svg="http://www.w3.org/2000/svg">
  <sodipodi:namedview
     id="namedview7"
     pagecolor="#505050"
     bordercolor="#eeeeee"
     borderopacity="1"
     inkscape:pageshadow="0"
     inkscape:pageopacity="0"
     inkscape:pagecheckerboard="0"
     inkscape:document-units="mm"
     showgrid="false"
     fit-margin-top="0"
     fit-margin-left="0"
     fit-margin-right="0"
     fit-margin-bottom="0"
     inkscape:zoom="1"
     inkscape:cx="224.5"
     inkscape:cy="519.5"
     inkscape:window-width="2560"
     inkscape:window-height="1377"
     inkscape:window-x="1072"
     inkscape:window-y="333"
     inkscape:window-maximized="1"
     inkscape:current-layer="layer1" />
  <defs
     id="defs2" />
  <g
     inkscape:label="Layer 1"
     inkscape:groupmode="layer"
     id="layer1"
     transform="translate(-6.102025,-38.856528)">
    <path
       style="fill:#000000;fill-opacity:1;stroke:#000000;stroke-width:0.264583;stroke-opacity:1"
       d="m 97.137199,235.07444 c -1.94886,-0.1233 -2.12675,-0.57355 -0.672058,-1.70104 4.381819,-3.39621 13.955349,-11.97771 21.219909,-19.02107 6.84919,-6.64064 8.37292,-8.05452 8.77857,-8.14571 0.65943,-0.14824 9.0808,1.59866 9.0808,1.88369 0,0.72209 -16.13834,16.7041 -25.1352,24.89171 l -2.51331,2.28724 -4.63044,-0.05 c -2.54673,-0.0275 -5.304457,-0.0927 -6.128271,-0.1448 z m 15.917631,-0.53354 c 0,-0.15141 0.92234,-1.15079 2.04965,-2.22086 1.1273,-1.07006 3.37795,-3.23728 5.00143,-4.81604 l 2.9518,-2.87048 4.32512,-1.18891 c 19.93108,-5.47876 36.55203,-16.87568 48.9359,-33.55513 14.50321,-19.53393 20.39766,-45.23154 15.83909,-69.05251 C 188.6768,102.64677 180.29185,86.807599 167.29622,73.873428 148.3435,56.774286 126.55956,47.872966 104.32358,47.81817 c -7.478235,0.0041 -11.365642,0.381945 -17.946716,1.744254 l -3.791508,0.784858 -2.54944,-0.943217 c -1.402191,-0.518769 -4.279919,-1.424705 -6.394948,-2.01319 -2.115031,-0.588485 -3.994337,-1.117699 -4.176238,-1.176031 -1.004433,-0.322103 -0.05916,-0.906647 3.307291,-2.04519 11.602061,-3.923847 21.747171,-5.456086 34.038149,-5.140858 15.14466,0.388417 28.48381,3.713289 41.56654,10.36074 9.92578,5.043374 17.3414,10.435723 25.27936,18.382153 16.07817,16.095332 25.41365,35.457141 28.20114,58.489241 0.63251,5.22621 0.63407,16.93878 0.003,21.82812 -2.16287,16.75481 -7.22104,30.49831 -16.11597,43.78855 -13.23452,19.77418 -33.59104,34.21505 -56.81431,40.30394 -6.19693,1.62477 -15.87501,3.06313 -15.87501,2.35936 z M 85.935042,233.56349 C 52.32404,227.16732 24.293822,203.41969 12.277458,171.15967 5.909212,154.063 4.521218,134.75298 8.3655137,116.73593 c 0.9411679,-4.41096 1.245989,-5.44103 1.4922288,-5.0426 0.1686345,0.27286 0.2339555,0.26877 0.3308535,-0.0207 0.0664,-0.19837 0.194019,1.78246 0.283588,4.40183 0.271087,7.92769 1.437262,15.39616 3.635613,23.28333 9.021454,39.34361 26.770332,71.30043 63.49287,83.0711 5.920446,1.85881 13.572344,3.3469 19.443787,3.7813 2.044142,0.15123 2.655856,0.28542 2.700616,0.5924 0.06009,0.4121 -1.581833,1.86 -6.07577,5.35781 -3.051554,2.37515 -2.833791,2.33564 -7.734258,1.40308 z M 148.77359,207.09017 C 124.51957,203.86962 103.56727,198.16232 88.051709,190.54983 77.973608,185.60515 66.891228,178.14101 60.57542,172.04416 50.650616,162.46343 40.809913,145.53291 37.11698,131.68489 34.183809,120.68587 33.10894,111.4117 33.67079,101.95051 c 0.371872,-6.262081 1.314434,-13.450691 2.102954,-16.03854 0.231722,-0.760487 0.425939,-0.639632 0.518348,-0.434082 0.128363,0.285524 0.15487,0.637581 0.168134,0.963248 0.06668,1.637079 -0.268132,2.930263 -0.448617,4.894793 -0.491786,5.35289 -0.413419,16.505431 0.148733,21.166671 1.317649,10.92563 3.747487,19.4182 8.213537,28.70729 4.769414,9.92006 12.242549,20.36027 20.656246,28.85742 3.60858,3.64438 11.110322,9.01721 18.523672,13.26688 4.819796,2.76291 5.590048,3.13935 10.369767,5.06793 16.374816,6.60709 38.163196,11.94292 59.150686,14.48562 4.35846,0.52804 6.01809,0.82318 6.01809,1.0702 0,0.50351 -4.48592,3.79863 -5.13358,3.77085 -0.30523,-0.0131 -2.63856,-0.30047 -5.18517,-0.63862 z m -70.777151,-0.13311 c -0.209341,-0.33872 0.777277,-4.17709 1.526526,-5.93884 2.247493,-5.28462 5.218875,-7.91359 8.930056,-7.90098 3.136966,0.0107 4.179033,1.17166 3.892076,4.33627 -0.355621,3.92185 -3.833479,7.01437 -9.918258,8.81934 -2.637147,0.78228 -4.218826,1.02655 -4.4304,0.68421 z m 61.913611,-8.74654 c -1.45521,-0.2717 -3.03279,-0.563 -3.50573,-0.64733 -0.51062,-0.091 -0.8599,-0.3113 -0.8599,-0.54225 0,-0.21391 2.23623,-2.67906 4.96939,-5.47811 7.43215,-7.61132 13.00684,-13.44183 20.16757,-21.09304 2.47112,-3.44714 8.49318,-5.77314 5.6617,-9.69423 -3.59018,-4.97175 -3.99315,-8.57762 -0.95658,-8.55965 5.17267,0.91277 3.92584,3.24844 7.99334,-1.58837 0,-0.0835 -0.17897,-0.40729 -0.3977,-0.71958 -0.77394,-1.10495 -2.96971,-1.44442 -6.87834,-1.0634 l -2.11667,0.20633 -0.92604,-1.7859 c -0.50933,-0.98225 -2.15785,-3.63494 -3.66339,-5.89488 C 147.19171,123.02798 126.60649,101.0625 106.70483,85.124125 85.845597,68.418865 65.928745,57.073307 44.395459,49.629827 c 1.815106,0.398447 -6.66681,-1.625912 -5.004513,-2.456658 1.898314,-0.850393 11.938554,-1.1783 17.175346,-0.570135 12.555368,1.458096 25.840595,5.719392 40.121298,12.869086 33.58464,16.814292 66.08034,46.03641 90.20401,81.11693 1.29978,1.89014 2.36324,3.61573 2.36324,3.83464 0,0.4179 -0.65479,1.58779 -4.643,8.29557 -2.41202,4.05679 -2.43685,4.11629 -2.30135,5.51343 l 0.13699,1.41239 -1.79086,1.80468 -1.79085,1.80469 0.56989,0.80034 c 0.66953,0.94026 1.35251,2.76695 1.35251,3.61738 0,1.06687 -0.86995,1.8358 -2.02487,1.78974 -1.08609,-0.0433 -3.78177,-1.14472 -5.58006,-2.27994 l -1.0752,-0.67874 -2.20678,2.83145 c -6.78868,8.71034 -17.12379,20.86095 -23.61938,27.76844 -1.80894,1.92365 -1.90793,1.94085 -6.37183,1.1074 z M 64.45962,198.0756 c -0.216183,-0.56336 1.988838,-4.94702 3.498773,-6.95568 3.241455,-4.31209 7.199638,-5.90383 10.762245,-4.32792 1.398706,0.61872 1.790446,1.1961 1.790446,2.63893 0,4.74436 -4.198327,7.94661 -11.517707,8.78508 -3.373826,0.38649 -4.343088,0.35647 -4.533757,-0.14041 z m -9.480828,-8.47214 c -0.436562,-0.0599 -1.418828,-0.17667 -2.182812,-0.25938 -1.001644,-0.10845 -1.389063,-0.26275 -1.389063,-0.55324 0,-0.73942 2.489962,-4.16551 4.499822,-6.1916 2.726748,-2.74876 4.88139,-3.82061 7.665447,-3.81327 3.090167,0.008 5.032648,1.23122 5.032648,3.16874 0,3.41044 -2.869592,6.36968 -7.011459,7.2305 -1.564148,0.32508 -5.486712,0.57311 -6.614583,0.41825 z m 37.797142,-2.8711 c -1.358725,-0.5912 -2.898963,-2.17275 -3.55891,-3.65437 -0.85701,-1.92402 -0.86114,-5.53335 -0.0098,-8.5306 0.734909,-2.58725 2.401117,-6.05832 2.957192,-6.16048 0.555585,-0.10207 3.019785,3.23824 4.375698,5.93142 2.522526,5.01035 2.171615,9.5789 -0.916684,11.93443 -1.246695,0.95089 -1.619927,1.01375 -2.84753,0.4796 z m -11.338809,-6.07835 c -2.062657,-1.23807 -3.07794,-3.29534 -3.078969,-6.23891 -7.94e-4,-2.33794 0.326482,-3.94214 1.259718,-6.17431 0.932466,-2.23032 3.036697,-5.73194 3.444499,-5.73194 0.811425,0 3.677656,5.37278 4.451813,8.34497 0.768943,2.95218 0.351158,6.51832 -0.958736,8.18358 -0.86292,1.09702 -2.59828,2.25718 -3.372085,2.25436 -0.378349,-0.001 -1.164156,-0.28836 -1.74624,-0.63775 z m -37.13557,-1.48004 c -3.463205,-0.48396 -4.536305,-0.79486 -4.536305,-1.31429 0,-0.68343 1.668513,-2.713 4.080389,-4.96338 4.597532,-4.28967 9.320905,-5.18336 12.695171,-2.402 1.000043,0.82432 1.013738,0.86031 0.867254,2.27959 -0.286385,2.77481 -2.677054,5.26119 -5.873975,6.10916 -1.55054,0.41128 -5.293802,0.56184 -7.232534,0.29092 z m 27.019997,-5.68562 c -1.661589,-1.42226 -2.299383,-2.98478 -2.265442,-5.55009 0.04393,-3.32071 1.265303,-6.21139 4.282487,-10.1356 1.916496,-2.49263 2.240992,-2.46914 3.403539,0.24641 1.825707,4.2646 2.411709,8.78283 1.52595,11.7655 -0.486687,1.63886 -1.900512,3.32342 -3.397496,4.0481 -1.595453,0.77235 -2.295699,0.69849 -3.549038,-0.37432 z m -32.746927,-5.8611 c -3.240741,-0.51801 -7.276041,-1.94165 -7.276041,-2.56696 0,-0.54831 2.99566,-3.23763 5.236829,-4.70131 2.857611,-1.86627 4.534392,-2.45042 7.066296,-2.46173 2.436566,-0.0109 3.684751,0.49717 5.295072,2.15526 0.846182,0.87129 0.938879,1.09617 0.786553,1.90814 -0.42544,2.26779 -2.287654,4.37153 -4.591119,5.18659 -1.232389,0.43607 -5.038701,0.7164 -6.51759,0.48001 z m 23.864541,-2.21432 c -0.374428,-0.29453 -1.000633,-1.18926 -1.391571,-1.98831 -0.640513,-1.30916 -0.698915,-1.66823 -0.590692,-3.63168 0.134223,-2.43514 0.705815,-3.83269 2.742885,-6.70641 1.349057,-1.90314 4.742759,-5.12977 5.395375,-5.12977 0.832713,0 1.861754,4.67391 1.861754,8.4561 0,4.62564 -1.4263,7.54567 -4.350912,8.90753 -1.644623,0.76582 -2.77464,0.79434 -3.666839,0.0925 z m -8.110169,-9.7171 c -0.887397,-1.07294 -1.599163,-3.07055 -1.599163,-4.48814 0,-2.01799 1.398521,-5.01727 3.544337,-7.60122 1.169077,-1.40778 5.09483,-4.64554 5.632675,-4.64554 0.720233,0 1.556924,5.66599 1.310513,8.87468 -0.420881,5.48054 -3.134979,8.8524 -7.125523,8.8524 -0.766519,0 -1.095256,-0.18502 -1.762839,-0.99218 z m -20.862719,-1.1409 c -0.917819,-0.12067 -2.346569,-0.41591 -3.175,-0.65607 -2.065946,-0.59893 -5.77533,-2.3985 -5.96551,-2.8941 -0.212588,-0.55399 2.153354,-2.38061 5.087011,-3.9274 5.409769,-2.85233 9.909831,-2.72258 12.549997,0.36186 1.126165,1.31567 1.206064,1.99494 0.424551,3.60933 -1.323578,2.73414 -4.700246,4.06133 -8.921049,3.50638 z m 14.335008,-9.67418 c -0.600786,-1.02482 -0.776086,-1.68628 -0.853757,-3.22148 -0.08745,-1.72829 -0.01257,-2.10469 0.710536,-3.57187 1.354172,-2.74763 4.516533,-5.5799 8.43766,-7.55693 2.491965,-1.25644 2.454942,-1.28547 2.454942,1.92489 0,6.23162 -1.817897,10.90611 -4.956723,12.74559 -0.941784,0.55192 -1.692939,0.75483 -3.137439,0.84754 l -1.899203,0.12188 z m -20.924469,-4.20946 c -2.779512,-0.74872 -8.8074,-4.34079 -8.8074,-5.24841 0,-0.67648 4.995897,-2.97612 7.859932,-3.61796 1.875764,-0.42037 5.215805,-0.34581 6.707751,0.14973 1.651688,0.5486 3.553476,2.39295 3.998257,3.87749 0.282852,0.94409 0.25941,1.19115 -0.19221,2.02567 -0.62911,1.16248 -2.433669,2.57417 -3.762184,2.94314 -1.360858,0.37794 -4.151159,0.31561 -5.804146,-0.12966 z m 16.408016,-5.94681 c -1.617916,-0.65156 -2.122599,-4.79625 -0.880438,-7.23059 0.802899,-1.5735 2.625352,-3.45806 4.632338,-4.79023 1.7756,-1.17857 5.328478,-2.76683 6.679888,-2.98613 l 0.948275,-0.15389 -0.177729,2.13114 c -0.662966,7.94952 -4.373422,13.32476 -9.165667,13.27804 -0.800364,-0.008 -1.716865,-0.11955 -2.036667,-0.24834 z m -18.14799,-7.95759 c -2.710762,-0.54999 -5.947678,-2.42724 -8.902878,-5.16323 -0.882271,-0.81683 -1.604131,-1.64226 -1.604131,-1.83429 0,-0.49902 3.698597,-1.85741 6.488805,-2.38315 6.350741,-1.19663 11.115247,0.89219 11.906319,5.21987 0.482873,2.64164 -3.922509,4.96538 -7.888115,4.1608 z m 15.53293,-3.96541 c -1.266454,-0.36772 -1.693926,-1.03707 -1.863844,-2.91844 -0.290107,-3.21215 1.345023,-5.8093 5.058209,-8.03418 1.825205,-1.09363 5.793047,-2.43538 7.952502,-2.68918 l 1.480855,-0.17405 -0.180735,1.03088 c -0.359082,2.04815 -1.807622,5.98945 -2.839098,7.72484 -1.409065,2.37067 -2.653506,3.62284 -4.534741,4.5629 -1.643018,0.82103 -3.373776,0.99066 -5.073148,0.49723 z M 23.180535,111.19615 c -1.901614,-0.68455 -4.136121,-2.21984 -6.185311,-4.2498 -2.183391,-2.16291 -3.25941,-3.59041 -3.072844,-4.07659 0.45987,-1.1984 9.334701,-1.82983 12.397687,-0.88207 2.850767,0.88209 4.932958,3.19296 5.34203,5.92872 0.158099,1.05733 0.11484,1.14636 -1.059074,2.17968 -0.673145,0.59253 -1.655228,1.19713 -2.1824,1.34356 -1.46904,0.40806 -3.720814,0.30342 -5.240088,-0.2435 z m 16.785555,-0.90589 c -2.345557,-0.8756 -2.897499,-1.9465 -2.323446,-4.50804 0.547089,-2.44121 2.698358,-4.6069 5.764117,-5.802741 2.867967,-1.11868 9.960208,-1.68663 10.291186,-0.82411 0.374269,0.975331 -2.901045,6.260591 -5.265563,8.496851 -2.673525,2.52851 -5.990797,3.56215 -8.466294,2.63804 z M 38.389062,95.929339 c -1.204793,-0.49998 -1.665261,-1.65987 -1.457624,-3.67168 0.47878,-4.63894 5.621293,-7.976922 13.482688,-8.751564 l 1.866443,-0.183915 -0.149622,1.115518 c -0.258964,1.930715 -2.850534,6.812511 -4.668629,8.794401 -2.156521,2.3508 -3.72432,3.13557 -6.227662,3.11728 -1.04562,-0.008 -2.296917,-0.19234 -2.845594,-0.42004 z M 27.859,95.851009 c -2.65507,-0.81056 -4.76563,-2.91996 -6.484924,-6.48137 -1.161121,-2.40518 -2.392196,-6.532369 -2.142553,-7.182926 0.165356,-0.430914 1.314389,-0.274952 4.338137,0.588825 4.423677,1.263687 7.871523,3.606628 9.245941,6.282961 0.545582,1.06239 0.692164,1.72254 0.685425,3.08691 -0.01138,2.30151 -0.456468,3.18739 -1.805567,3.59365 -1.201439,0.3618 -2.859583,0.41018 -3.836459,0.11195 z m 7.150815,-15.249703 c -2.769129,-2.590197 -2.863202,-6.757255 -0.264748,-11.727432 1.366764,-2.614266 3.604803,-5.58378 4.208336,-5.58378 0.3215,0 0.729247,0.564769 1.296929,1.796376 3.421415,7.422851 3.110672,13.199348 -0.853424,15.864562 -1.850501,1.244163 -2.760665,1.171609 -4.387093,-0.349726 z m 9.928307,-13.67319 c -0.385575,-1.200548 -1.074857,-2.997047 -1.531737,-3.992222 -0.580159,-1.263703 -0.755769,-1.926651 -0.582268,-2.198151 0.293444,-0.459189 5.950027,-4.6293 7.195904,-5.304917 0.826638,-0.448273 0.919052,-0.447418 2.248959,0.02077 3.025976,1.065281 7.8164,3.379229 7.762073,3.749368 -0.03016,0.205534 -1.060201,0.983232 -2.288971,1.728216 -3.041703,1.844144 -5.995305,3.9121 -8.90438,6.234383 -1.340308,1.069951 -2.608287,1.945367 -2.817731,1.945367 -0.243927,0 -0.632785,-0.784587 -1.081849,-2.182812 z"
       id="path1436"
       sodipodi:nodetypes="sssssscssssccsscsccscscsssssssscssssssssccsssssscsssssssasssssssssssssssssscccccsssssccsssssssssscccsssssssssssssscssssssccsssssscsssssssssssssssssssssssssssssscssssssscssssssssssssssssssssssssssssssssssssssssscssssssscsssssssssssssscsssssscsssssssssssssssssssssssss"
       inkscape:export-filename="C:\Users\Ele\Desktop\path1436.png"
       inkscape:export-xdpi="96"
       inkscape:export-ydpi="96" />
    <circle
       style="fill:#ffffff;fill-opacity:1;stroke:#ffffff;stroke-width:0.152891;stroke-miterlimit:10;stroke-opacity:1"
       id="path27851"
       cx="179.89624"
       cy="142.56267"
       r="3.4235547" />
  </g>
</svg>
