<?xml version="1.0" encoding="UTF-8" standalone="no"?>
<!-- Created with Inkscape (http://www.inkscape.org/) -->

<svg
   width="121.40874mm"
   height="121.37652mm"
   viewBox="0 0 458.86768 458.74592"
   version="1.1"
   id="svg1"
   xml:space="preserve"
   inkscape:version="1.4 (e7c3feb100, 2024-10-09)"
   sodipodi:docname="logo_huild_ball.svg"
   xmlns:inkscape="http://www.inkscape.org/namespaces/inkscape"
   xmlns:sodipodi="http://sodipodi.sourceforge.net/DTD/sodipodi-0.dtd"
   xmlns="http://www.w3.org/2000/svg"
   xmlns:svg="http://www.w3.org/2000/svg"><sodipodi:namedview
     id="namedview1"
     pagecolor="#505050"
     bordercolor="#ffffff"
     borderopacity="1"
     inkscape:showpageshadow="0"
     inkscape:pageopacity="0"
     inkscape:pagecheckerboard="1"
     inkscape:deskcolor="#505050"
     inkscape:document-units="mm"
     inkscape:zoom="1.4004209"
     inkscape:cx="182.44515"
     inkscape:cy="162.09413"
     inkscape:window-width="1920"
     inkscape:window-height="988"
     inkscape:window-x="0"
     inkscape:window-y="0"
     inkscape:window-maximized="1"
     inkscape:current-layer="layer1" /><defs
     id="defs1" /><g
     inkscape:label="Layer 1"
     inkscape:groupmode="layer"
     id="layer1"
     transform="translate(-196.4435,-297.74628)"><path
       style="fill:#000000"
       id="path2"
       d="" /><path
       style="fill:#000000"
       id="path1"
       d="" /><path
       style="fill:#000000"
       d="m 414.38436,756.38349 c -0.704,-0.0661 -3.512,-0.27639 -6.24,-0.46721 -10.54366,-0.73751 -22.88864,-2.61705 -33.92,-5.16438 -7.62567,-1.7609 -13.22792,-3.36147 -21.86835,-6.24782 -6.50599,-2.17333 -7.34392,-2.53208 -7.63235,-3.26762 -0.53698,-1.36941 -0.0812,-17.16485 0.60561,-20.98627 l 0.57509,-3.2 0.96,0.0508 c 0.528,0.0279 2.904,0.41547 5.28,0.86117 13.27981,2.49108 30.3831,4.05321 44.28692,4.04495 10.17777,-0.006 23.90004,-0.96213 34.67403,-2.41588 5.69155,-0.76797 14.73716,-2.23524 15.81725,-2.56569 0.4318,-0.1321 0.56948,0.10711 0.69645,1.20999 1.68589,14.64393 2.10742,17.07275 3.93106,22.65025 1.20061,3.67201 3.56216,8.76971 5.33677,11.52008 0.62304,0.96563 1.08285,1.80566 1.02178,1.86672 -0.18959,0.1896 -6.66364,0.98147 -12.42363,1.51959 -5.11883,0.47822 -27.72904,0.9081 -31.10063,0.5913 z m 48.64505,-6.18216 c -5.264,-7.90716 -7.98814,-17.43976 -8.98871,-31.45434 l -0.22156,-3.10321 0.92261,-0.21017 c 5.39065,-1.22798 16.33513,-4.12704 21.77491,-5.76791 23.49211,-7.08626 48.63537,-18.16119 69.85174,-30.76783 3.72085,-2.2109 4.03793,-2.33955 4.8,-1.94748 0.44878,0.23089 2.41067,2.0038 4.35976,3.9398 4.08383,4.05642 6.8652,8.02032 9.54547,13.60383 1.90809,3.97491 4.50613,11.32586 4.18597,11.84389 -0.37096,0.60022 -11.18735,8.54245 -15.99523,11.74494 -25.24477,16.81532 -53.49088,28.47596 -82.72001,34.14873 -2.376,0.46113 -4.573,0.89275 -4.88223,0.95914 -0.41223,0.0885 -1.11462,-0.70903 -2.63272,-2.98939 z M 332.78436,736.90216 c -25.1256,-11.30061 -47.29653,-26.30174 -66.63013,-45.08278 -33.94195,-32.97187 -56.84059,-75.26267 -65.52124,-121.00919 -6.49509,-34.22875 -5.43842,-68.01226 3.17277,-101.43862 2.12566,-8.25125 7.21422,-23.94366 8.02808,-24.75753 0.0757,-0.0756 1.18834,0.86062 2.47266,2.0806 8.01762,7.61595 20.18259,14.4836 30.98239,17.49088 2.9145,0.81157 2.75557,0.41795 2.22265,5.50467 -2.40021,22.90985 -2.34037,52.23553 0.15672,76.8 2.63974,25.96764 8.20301,52.71479 14.34334,68.96 11.86277,31.38483 32.29149,59.26894 63.57276,86.77343 3.36469,2.95845 12.36965,10.41952 13.35413,11.06458 0.8225,0.53892 0.93591,1.76708 0.41623,4.50735 -0.7096,3.74174 -1.04851,7.64714 -1.2437,14.33203 l -0.20666,7.07738 z m 51.2,-21.49193 c -12.60033,-0.7803 -26.08359,-2.52178 -36,-4.6497 l -3.04,-0.65235 -4.48,-3.61105 c -10.54956,-8.50335 -19.58119,-16.70348 -28.77275,-26.1238 -3.44699,-3.53278 -6.26725,-6.53116 -6.26725,-6.66308 0,-0.13192 2.196,-0.33063 4.88,-0.44157 9.2304,-0.38154 19.81086,-1.76845 27.47926,-3.60203 l 3.44165,-0.82294 3.45955,1.90977 c 13.9267,7.68794 27.48543,10.81155 39.84315,9.17894 6.91263,-0.91324 12.01185,-2.64688 20.57484,-6.99503 16.14189,-8.19662 29.35103,-20.29887 38.78528,-35.53521 4.62813,-7.47445 8.95568,-22.6104 10.03949,-35.11395 0.65972,-7.61097 -0.2646,-17.40331 -2.13293,-22.59651 -0.78765,-2.18934 -1.05065,-2.52608 -4.72219,-6.04619 -14.31446,-13.72406 -28.02099,-22.07959 -41.4881,-25.29123 -4.12581,-0.98392 -12.62886,-1.37644 -16.57588,-0.76518 -5.72548,0.88669 -14.61827,4.09485 -19.68883,7.10295 -4.2831,2.54093 -8.13335,6.85166 -10.20952,11.43054 -1.88119,4.14888 -2.54811,7.58814 -2.72455,14.05039 -0.21566,7.89848 0.66088,14.48218 3.14171,23.59719 1.09146,4.01026 5.36688,14.26559 6.89226,16.53229 3.57256,5.30881 11.15257,11.72277 24.06052,20.35925 6.40597,4.28612 16.69569,10.75958 16.82411,10.58436 0.0467,-0.0637 0.7012,-4.5799 1.45441,-10.0359 l 1.36946,-9.92 -3.28547,-7.61562 -3.28548,-7.61563 -12.77486,-13.50437 c -11.77986,-12.45255 -12.86252,-13.69131 -13.90025,-15.90438 -2.49456,-5.3199 -3.67652,-13.4321 -2.53114,-17.37207 0.79276,-2.727 1.85178,-3.58312 7.30845,-5.90822 5.71861,-2.43671 6.89207,-2.54799 10.12045,-0.95971 4.18187,2.05738 11.04175,9.68322 16.23927,18.05252 4.94594,7.96421 5.37289,8.88121 7.73912,16.62216 3.92079,12.82655 4.96144,18.55521 4.99289,27.48532 0.0162,4.59651 -0.11571,6.76005 -0.54054,8.86714 -2.01151,9.97671 -6.84437,17.25337 -14.94613,22.50383 -2.6399,1.71083 -5.46783,3.1246 -10.78076,5.38962 -3.67623,1.56727 -4.48861,1.79941 -6.29685,1.79941 -3.3396,0 -6.84351,-0.60296 -10.42942,-1.79472 -11.04537,-3.67088 -21.33767,-12.79202 -31.19497,-27.64528 -6.6643,-10.04196 -11.67918,-19.97507 -20.92161,-41.44 l -6.06261,-14.08 -1.78105,-7.36 c -4.01446,-16.5893 -5.47573,-26.90167 -5.46397,-38.56 0.01,-9.8963 0.99003,-15.21986 3.88808,-21.12 1.22153,-2.4869 1.97209,-3.52032 4.12532,-5.68 1.44767,-1.452 2.83481,-2.64 3.08253,-2.64 0.27123,0 1.15363,1.62307 2.21813,4.08 l 1.76771,4.08 2.63189,1.52 c 1.44753,0.836 2.83926,1.52 3.09272,1.52 0.25346,0 1.44599,-0.49611 2.65006,-1.10247 5.39358,-2.71617 8.02683,-7.86458 7.1129,-13.90684 -0.20221,-1.33688 -0.45046,-2.80662 -0.55166,-3.2661 -0.17852,-0.81053 -0.12766,-0.84178 1.7084,-1.04951 5.82966,-0.65955 15.05636,1.99286 23.8674,6.86118 12.07958,6.67427 24.79846,16.73488 42.18752,33.37023 3.46475,3.31457 6.40884,6.02206 6.54243,6.01666 0.13359,-0.005 2.81954,-8.90932 5.96877,-19.78648 4.25218,-14.68662 5.92545,-20.02375 6.50124,-20.73667 2.50123,-3.09692 9.38568,-12.3791 11.51094,-15.52 1.36952,-2.024 2.59184,-3.79782 2.71627,-3.94182 0.6535,-0.75629 10.65371,18.39019 17.18299,32.89867 2.6514,5.89156 13.88197,31.92494 16.60912,38.50129 8.89058,21.43901 14.467,38.43314 16.43766,50.09366 0.60771,3.59586 0.86951,10.36703 0.45964,11.8882 -0.11093,0.41171 -1.08702,1.08225 -2.73633,1.87978 -9.02007,4.36168 -18.09798,11.47728 -24.09095,18.88338 -3.48426,4.30585 -5.73184,7.82034 -8.20939,12.83684 -2.63178,5.3288 -4.12495,9.36124 -5.61966,15.17637 l -1.10432,4.29636 1.83661,4.29427 1.83661,4.29426 4.06314,2.03605 4.06314,2.03604 4.11117,-1.76357 c 2.26114,-0.96996 4.2684,-1.96835 4.46058,-2.21865 0.19217,-0.2503 0.68215,-1.71464 1.08883,-3.25409 l 0.73942,-2.799 -0.6277,-1.12902 c -0.34523,-0.62096 -1.7526,-3.03537 -3.12748,-5.36535 l -2.4998,-4.23633 0.7282,-1.84367 c 3.62614,-9.1808 9.28565,-16.25245 15.66911,-19.57882 1.32,-0.68784 16.872,-7.01194 34.56,-14.05356 33.04877,-13.15676 51.43245,-20.88367 56.07547,-23.56929 14.65173,-8.47487 25.3618,-23.4625 31.19444,-43.6534 l 1.23968,-4.2914 2.28854,-1.19793 c 4.14148,-2.16783 7.20585,-4.55128 12.48244,-9.7088 2.86388,-2.79924 5.28835,-5.00822 5.38772,-4.90886 0.21877,0.21878 0.89804,7.026 1.58845,15.91839 0.68208,8.78515 0.96317,28.99362 0.50297,36.16 -0.63569,9.8992 -1.05913,13.49943 -1.65819,14.09849 -0.29794,0.29795 -2.53967,2.75532 -4.98161,5.46084 -34.39707,38.10976 -77.59286,68.34933 -124.27991,87.00317 -27.49181,10.98438 -54.09269,17.31077 -83.52,19.86326 -3.9016,0.33842 -27.69508,0.65115 -31.52,0.41428 z M 573.5786,698.57019 c -3.22186,-9.05372 -8.10454,-16.83634 -14.40568,-22.96154 l -2.79971,-2.72154 7.40558,-4.94959 c 22.91814,-15.31758 45.51958,-34.78748 63.07185,-54.33294 3.26322,-3.63378 3.5516,-3.87489 4.16,-3.47822 1.10871,0.72287 3.57903,3.98932 4.6272,6.11845 l 0.99703,2.02526 -1.94046,4.27006 c -8.5747,18.86897 -20.25936,37.12813 -34.47331,53.87006 -6.11574,7.20345 -24.16797,25.12 -25.31022,25.12 -0.15341,0 -0.75294,-1.332 -1.33228,-2.96 z m -276.10712,-33.9934 c -12.95548,-15.55002 -23.2222,-33.53565 -29.96406,-52.49217 -3.00715,-8.45541 -5.46895,-17.47818 -7.99869,-29.31615 l -1.11941,-5.23828 1.67752,-1.57495 c 7.12812,-6.6923 21.17057,-17.43866 21.87149,-16.73775 0.0901,0.0901 -0.004,3.74327 -0.20861,8.11823 -0.64462,13.77044 0.37265,33.71858 2.59688,50.92371 l 0.38386,2.96924 8.70299,7.17542 c 6.00303,4.94936 9.85615,8.40453 12.42001,11.13728 6.60913,7.04449 16.84631,16.20426 24.3301,21.7695 2.30124,1.71129 3.31887,2.6485 3.04,2.79974 -0.58359,0.31649 -7.93704,1.49654 -12.7392,2.04432 -2.2,0.25096 -7.096,0.61294 -10.88,0.8044 -3.784,0.19147 -7.51628,0.3832 -8.29396,0.42609 l -1.41396,0.078 z m 341.21945,-55.10444 c -0.50775,-0.67219 -1.60589,-1.94914 -2.4403,-2.83767 l -1.51712,-1.61551 0.44134,-3.82449 c 1.65588,-14.34937 1.65126,-34.70435 -0.0124,-54.38449 -1.15151,-13.622 -3.59929,-33.89954 -5.42729,-44.96 -5.38718,-32.59542 -14.28288,-57.14142 -29.68857,-81.92 -14.49382,-23.31192 -32.87433,-42.83196 -54.78225,-58.17857 -8.27817,-5.79889 -24.0759,-14.85467 -31.84001,-18.25173 -4.21039,-1.84219 -11.91585,-4.5297 -12.98727,-4.5297 -0.43801,0 -0.50033,-0.21668 -0.34513,-1.2 1.00911,-6.3939 1.03478,-15.88497 0.0604,-22.32 -0.26651,-1.76 -0.57604,-3.80573 -0.68785,-4.54607 l -0.20328,-1.34606 3.16159,1.1273 c 28.11382,10.02432 53.50497,25.03812 75.96159,44.91613 5.95586,5.27197 16.64787,16.13348 21.77077,22.1159 29.88536,34.89949 48.50738,77.49297 53.71168,122.8528 1.15877,10.0996 1.44354,15.36766 1.44438,26.72 8.1e-4,10.88207 -0.25597,15.99875 -1.26867,25.28 -1.8852,17.27756 -6.12287,35.63264 -11.98391,51.90716 -2.44582,6.79139 -2.24062,6.48704 -3.36769,4.995 z m -95.77489,-10.60287 c -4.86702,-6.17628 -14.67744,-25.48556 -26.44966,-52.05929 -6.84425,-15.44971 -14.30855,-32.84013 -14.15956,-32.98912 0.0757,-0.0757 0.77217,0.0901 1.54763,0.36855 2.22237,0.79799 5.51146,0.91734 8.92991,0.32404 4.18941,-0.72711 6.57932,-1.47282 13.44,-4.19364 7.93522,-3.14694 10.08229,-3.69736 15.20001,-3.89666 4.60648,-0.17938 6.90248,0.22243 9.89715,1.73206 4.04607,2.03964 7.9367,6.23189 10.63067,11.45477 2.22437,4.31247 8.92346,20.24388 10.29373,24.48 2.04383,6.31837 2.64841,9.66896 2.84664,15.77589 0.11509,3.54587 0.0401,6.21469 -0.22028,7.84 -1.68821,10.53774 -8.11872,19.41947 -18.92701,26.14171 -2.64644,1.64596 -8.41397,4.6613 -10.91042,5.7041 l -1.18951,0.49688 z M 256.97829,569.13217 c -0.44298,-2.19754 -1.18817,-7.05287 -1.78065,-11.60198 -3.77696,-28.99933 -4.2164,-58.8265 -1.30243,-88.40339 l 0.59146,-6.00339 3.67448,-4.07661 c 22.45481,-24.91223 55.62681,-46.5657 107.10321,-69.91304 37.83166,-17.15872 81.80619,-32.31562 125.94389,-43.40967 l 5.14389,-1.29292 3.56282,0.93474 c 8.60744,2.25826 18.71802,7.1708 34.03781,16.53834 17.56185,10.73849 36.09443,27.55777 49.12771,44.58594 3.30919,4.32352 6.50674,8.84283 6.49366,9.17795 -0.006,0.14413 -2.70562,1.14679 -6,2.22814 -3.29437,1.08135 -9.28725,3.14153 -13.31749,4.57818 -4.03025,1.43665 -9.30911,3.18923 -11.73081,3.89463 l -4.40309,1.28254 -2.82919,-1.84073 c -9.60738,-6.25075 -22.99289,-12.01224 -32.28778,-13.89754 -4.15883,-0.84354 -11.65028,-1.15879 -15.20061,-0.63967 -4.51106,0.65961 -7.21867,1.72752 -24.14081,9.52137 -8.976,4.13409 -16.48165,7.58308 -16.67923,7.66442 -0.25388,0.10452 -0.40807,-1.47648 -0.52575,-5.3907 -0.18748,-6.23593 -0.76053,-9.94103 -2.36616,-15.29859 -1.03244,-3.44499 -5.39911,-14.09088 -7.5472,-18.4 -3.25991,-6.53946 -8.7418,-11.07091 -15.10574,-12.48675 l -2.40769,-0.53566 -2.86124,1.80538 c -2.56236,1.6168 -3.12817,2.16323 -5.41663,5.23121 -2.51622,3.3733 -2.56868,3.48229 -3.42205,7.1093 l -0.86666,3.68349 2.21797,5.11651 2.21797,5.11652 3.66121,2.15938 c 4.14528,2.44489 4.16607,2.44714 7.5415,0.81447 l 2.17875,-1.05385 1.08315,-4.16 c 0.59573,-2.288 1.14045,-4.22 1.21048,-4.29333 0.23398,-0.24503 0.47693,0.20402 2.21802,4.09971 2.15437,4.8204 3.53158,8.67148 4.36064,12.19362 0.83584,3.55093 1.14539,14.24285 0.52275,18.05585 l -0.41409,2.53584 -18.24,8.4013 c -10.032,4.62071 -19.77793,8.91694 -21.65763,9.54717 -1.8797,0.63022 -5.1917,1.44888 -7.36,1.81923 -6.24591,1.0668 -15.59873,0.64415 -21.6191,-0.97697 l -1.29013,-0.34739 -1.034,-4.1585 c -1.17061,-4.70789 -2.36212,-7.0542 -4.66733,-9.19084 -1.65334,-1.53244 -3.41322,-2.1424 -5.56948,-1.93034 -1.4436,0.14197 -6.56126,2.19492 -7.24588,2.90668 -0.19996,0.20789 -0.89096,2.20648 -1.53556,4.44132 l -1.172,4.06336 1.84403,4.23149 1.84403,4.23149 2.41152,1.55226 c 17.64159,11.35557 36.52551,12.82393 57.99364,4.50941 2.96395,-1.14792 3.97446,-1.40571 4.85948,-1.23968 1.46314,0.27449 4.41344,2.27501 6.5241,4.42381 l 1.68568,1.71615 -2.92154,4.30418 c -4.61936,6.80551 -10.75126,14.74975 -15.88434,20.57911 l -1.03451,1.17484 -4.48185,-2.24519 c -27.43593,-13.74414 -51.80505,-17.48736 -71.52913,-10.98724 -2.69169,0.88705 -17.94362,7.38279 -21.36247,9.0982 -12.32268,6.1829 -22.15806,17.74924 -28.19744,33.16 -2.52942,6.45437 -5.15348,16.84384 -6.29429,24.92107 l -0.36674,2.59662 -2.60953,1.45344 c -6.62409,3.68945 -11.42852,7.22725 -22.15666,16.31531 l -1.04115,0.88198 z m 353.2804,-29.46392 c 0.84125,-5.16045 1.6346,-12.075 2.00557,-17.47981 l 0.26232,-3.82175 -2.12598,-4.891 -2.12599,-4.89101 -15.40953,-10.06821 -15.40954,-10.0682 -12.72266,-0.67278 c -6.99746,-0.37003 -12.76614,-0.71626 -12.81929,-0.76941 -0.0532,-0.0532 0.53387,-1.52297 1.30448,-3.26626 9.22271,-20.86365 11.91737,-37.65012 7.90141,-49.22213 -0.36122,-1.04088 -0.60463,-1.94465 -0.5409,-2.00838 0.0637,-0.0637 2.62011,-0.96282 5.68083,-1.99798 3.06073,-1.03516 8.80496,-3.03292 12.76496,-4.43947 3.96,-1.40655 8.81606,-3.06119 10.79125,-3.67698 l 3.59126,-1.11961 1.89431,3.08746 c 13.53609,22.06192 21.17235,41.84817 26.40755,68.42431 1.65547,8.40391 2.54694,14.00283 4.19757,26.36319 l 1.17785,8.82003 -6.1899,6.26565 c -5.06907,5.13111 -10.43804,9.85428 -11.20165,9.85428 -0.0851,0 0.1696,-1.98987 0.56608,-4.42194 z M 510.07657,498.40943 c -1.27907,-2.48208 -4.72676,-5.91109 -6.44933,-6.4144 -0.72442,-0.21166 -1.69109,-0.38484 -2.14816,-0.38484 -1.01101,0 -4.12154,1.19036 -4.43473,1.69711 -0.12433,0.20117 -0.4652,1.34162 -0.75749,2.53433 -0.29229,1.19271 -0.64705,2.16856 -0.78835,2.16856 -0.79705,0 -12.97269,-30.61803 -16.7425,-42.1023 -2.8765,-8.76291 -4.84399,-17.32522 -4.30427,-18.73171 0.22169,-0.57773 11.58909,-5.48998 14.92803,-6.45092 3.30502,-0.95119 9.57639,-1.01058 12.20459,-0.1156 8.0142,2.72908 14.28754,9.45648 20.01875,21.46766 6.28631,13.17457 9.52737,25.68195 8.51325,32.85301 -0.63415,4.48422 -2.81072,7.99649 -5.972,9.63686 -1.47486,0.7653 -12.67716,5.68338 -12.94288,5.68224 -0.0974,-4.2e-4 -0.60363,-0.82842 -1.12491,-1.84 z M 246.67016,457.98066 c -10.38482,-2.91828 -21.30639,-9.35167 -29.4858,-17.36874 -1.452,-1.42318 -2.64,-2.6961 -2.64,-2.82871 0,-0.63948 5.81418,-12.90727 8.52093,-17.97894 10.78153,-20.20154 23.32964,-37.29528 39.39768,-53.6697 5.02035,-5.11607 12.17034,-11.81568 12.87447,-12.0635 0.1549,-0.0545 1.29244,1.96149 2.52788,4.48 9.32995,19.01962 23.06496,37.6201 33.95904,45.98862 1.672,1.28438 3.07304,2.42868 3.11342,2.54287 0.0404,0.1142 -2.83268,1.93563 -6.38456,4.04763 -23.05205,13.70707 -42.66771,29.39581 -56.4512,45.15005 l -2.26605,2.59005 z m 72.96381,-55.59726 c -10.01563,-6.50242 -21.35705,-20.11055 -31.50737,-37.80445 -2.8135,-4.90445 -7.34224,-14.04394 -7.34224,-14.81743 0,-0.72088 9.9177,-8.32356 17.28,-13.24643 26.39904,-17.65201 55.37595,-29.42131 86.5013,-35.13349 2.43172,-0.44628 4.68798,-0.81141 5.0139,-0.81141 0.76195,0 1.37283,1.0264 4.09481,6.88 8.76195,18.84254 13.18571,34.78374 13.18704,47.52 4.2e-4,4.08375 -0.59978,10.39153 -1.01839,10.70268 -0.0543,0.0403 -2.47466,0.97651 -5.37866,2.08039 -13.02321,4.95045 -30.4595,12.29287 -44.16,18.5958 -8.01901,3.68915 -26.2139,12.67777 -31.2914,15.45854 -1.81027,0.99143 -3.33594,1.80259 -3.39039,1.80259 -0.0544,0 -0.94931,-0.55205 -1.9886,-1.22679 z m 93.53101,-44.45321 c 0.33337,-9.1959 -1.1246,-18.23478 -4.91643,-30.48 -2.63121,-8.49717 -6.61219,-18.50696 -10.17061,-25.57303 -0.64606,-1.28291 -1.12941,-2.36849 -1.07412,-2.41241 0.24231,-0.19246 10.87302,-1.15663 16.42054,-1.48929 7.67736,-0.46038 25.26831,-0.19317 32.8,0.49823 7.3793,0.67742 17.70791,2.1678 24.58064,3.5469 8.61003,1.72771 20.36646,4.74068 21.09837,5.40714 1.14389,1.04161 2.64328,11.76243 2.63475,18.83885 -0.005,4.45489 -0.64972,11.86624 -1.06803,12.28455 -0.0741,0.0741 -3.20668,0.92146 -6.96133,1.88307 -22.15748,5.67478 -44.43567,12.41101 -65.67883,19.85923 -4.19894,1.47222 -7.68241,2.67676 -7.74105,2.67676 -0.0586,0 -0.0244,-2.268 0.0761,-5.04 z"
       id="path3" /></g></svg>
